   <?xml version="1.0"?>
      
   <svg width="221.35201mm" height="156.952mm" viewBox="0 0 221.35201 156.952" version="1.1" id="svg1">
      <defs id="defs1">
         <linearGradient id="linearGradient1">
            <stop style="stop-color:#000000;stop-opacity:1;" offset="0" id="stop1" />
            <stop style="stop-color:#000000;stop-opacity:0;" offset="1" id="stop2" />
         </linearGradient>
      </defs>
  <defs>
    <!-- Gradiente radial para cada borda de país -->
    <radialGradient id="borda-grad" r="50%" cx="50%" cy="50%">
      <stop offset="0%" stop-color="#87cefa" stop-opacity="0.6" />
      <stop offset="100%" stop-color="#0b1f3a" stop-opacity="0" />
    </radialGradient>
  </defs>

      <g id="layer1" transform="translate(-2.0574649,-23.782539)" style="display:inline">
         <path id="Mar" style="display:inline;fill:#0000ff;stroke-width:0.264583"
            d="M 2.0574649,23.782539 V 180.82722 H 223.30287 V 23.782539 Z m 77.3632311,4.7625 0.60565,0.327629 0.60513,0.327628 0.46457,-0.147278 0.46406,-0.147794 2.08979,0.2651 2.0898,0.2651 0.21135,0.330729 0.21136,0.330729 -0.92346,0.366903 -0.92345,0.366386 v 0.49351 0.492993 h 0.66869 0.66869 l 2.07843,-0.701766 2.07842,-0.701249 0.49403,0.203088 0.49403,0.203089 -0.33848,0.12609 -0.33848,0.126091 -0.88522,1.384411 -0.88522,1.383895 -0.003,1.832446 -0.003,1.832447 0.35967,0.701249 0.35915,0.700732 -0.37414,0.310576 -0.37362,0.310575 -0.0822,0.575675 -0.0822,0.576193 -0.59531,0.08475 -0.59531,0.08423 0.006,0.444934 0.006,0.444417 0.51728,0.661458 0.51728,0.661459 0.006,0.353983 0.006,0.353984 -1.05833,-0.178801 -1.05834,-0.1788 v 0.272335 0.272334 l 0.26459,0.163298 0.26458,0.163814 v 0.214974 0.214974 l -1.01338,0.162264 -1.01389,0.162264 -0.50746,0.563273 -0.50798,0.56379 -0.59531,0.227376 -0.59531,0.227893 v 0.358635 0.358634 l -1.18081,0.848011 -1.18081,0.84801 -0.89245,0.372587 -0.89193,0.373104 -0.83768,1.700671 -0.83716,1.700672 v 1.033011 1.033012 l -0.41186,0.588078 -0.41186,0.588078 -0.31574,-0.0062 -0.31575,-0.0067 -1.52858,-1.382345 -1.52859,-1.382861 0.007,-1.115177 0.007,-1.115178 -0.42427,-1.250053 -0.42426,-1.249536 0.42426,-0.718819 0.42427,-0.718303 v -0.40721 -0.40721 l -0.57103,-0.399976 -0.57154,-0.399975 0.34572,-0.416512 0.34571,-0.416512 -0.30386,-0.66611 -0.30334,-0.666109 v -0.135392 -0.135392 l 0.26149,0.161747 0.26148,0.16123 -0.13229,-0.344165 -0.13281,-0.344681 -1.11931,-0.926042 -1.1188,-0.926042 -0.75034,-0.77773 -0.75034,-0.77773 -2.36058,0.06821 -2.36058,0.06821 V 39.36868 38.947517 l 0.66146,-0.251664 0.66146,-0.251148 v -0.218591 -0.218075 l -0.29456,-0.294555 -0.29404,-0.294556 0.18914,-0.305925 0.18913,-0.306441 0.54002,-0.199471 0.54002,-0.199988 0.29249,-0.905887 0.29301,-0.906405 0.65008,-0.09147 0.64958,-0.09198 1.15393,-1.015442 1.15394,-1.015959 0.80718,-0.17725 0.80771,-0.17725 0.58652,0.314192 0.58653,0.313676 1.00666,-0.682645 1.00614,-0.683163 h 0.25683 0.25683 l 1.81178,-1.317749 1.81229,-1.317749 0.73846,-0.05374 z m 88.220454,0.387056 0.38499,0.319361 0.38447,0.318843 0.0822,0.576193 0.0816,0.576192 0.92604,-0.06976 0.92605,-0.06976 0.39687,0.26045 0.39688,0.259932 -0.31161,0.503329 -0.31161,0.503328 0.29817,0.298173 0.29869,0.29869 -0.35605,0.330729 -0.35657,0.330729 0.21808,-0.381889 0.21859,-0.381888 -1.09037,0.778763 -1.09038,0.778764 -0.33744,0.661459 -0.33745,0.661458 -0.0966,0.198437 -0.0966,0.198438 h 0.49713 0.49764 l 0.6258,-0.463021 0.6258,-0.463021 0.77308,-0.729671 0.77308,-0.729154 0.47698,0.588594 0.47697,0.589111 0.9002,-0.484725 0.90021,-0.485241 0.51883,0.112138 0.51883,0.112137 -0.0661,0.31471 -0.0661,0.315226 h 0.39687 0.39688 v 0.800468 0.799951 l 0.6258,0.237712 0.62528,0.237711 0.15245,0.397909 0.15296,0.397909 -0.38499,0.31936 -0.38447,0.31936 0.0346,0.295073 0.0351,0.295589 -0.0315,1.528072 -0.0315,1.527555 -0.72761,0.278536 -0.7276,0.278019 -0.48163,-0.298689 -0.48162,-0.29869 -1.10588,0.998905 -1.10587,0.999423 v 0.271301 0.271818 l 0.81959,0.2651 0.81959,0.264583 0.42529,0.35295 0.4253,0.35295 -0.30799,0.49351 -0.30799,0.492993 0.4563,0.957565 0.45682,0.957564 -0.15968,0.258382 -0.15916,0.257866 0.41651,0.636136 0.41703,0.635621 -0.14987,0.38964 -0.14934,0.389123 0.43408,0.663009 0.4346,0.662492 -0.38861,0.751375 -0.3886,0.750859 -0.18294,1.222147 -0.18345,1.222148 0.27647,0.171049 0.27647,0.170532 -0.15141,1.381828 -0.15193,1.381828 -0.34882,0.37207 -0.3483,0.37207 -0.55707,-0.943611 -0.55655,-0.944129 -0.41083,-0.157613 -0.41031,-0.157613 -1.00356,0.7953 -1.00355,0.794784 -0.15917,0.63252 -0.15864,0.633036 -0.66405,0.166398 -0.66352,0.166398 v 0.427364 0.427364 l 0.293,0.977721 0.29301,0.97772 -0.59118,1.1591 -0.59118,1.15858 0.62012,0.40773 0.62063,0.40773 0.6258,0.53433 0.62581,0.53434 -0.32143,0.70641 -0.32195,0.70642 0.45321,1.13275 0.4532,1.13275 -0.1695,1.13223 -0.17002,1.13223 -0.31419,-0.008 -0.31367,-0.008 -0.46302,-0.26975 -0.46303,-0.26976 v -0.37465 -0.37465 l -0.44028,-0.92346 -0.44028,-0.92346 -0.38706,-0.14831 -0.38705,-0.14883 -0.35089,0.29146 -0.3514,0.29145 -0.80563,-0.47594 -0.80616,-0.47646 V 68.9333 67.7034 l -1.10535,-1.35857 -1.10485,-1.35858 h -0.35036 -0.34985 V 64.2334 63.48099 l -0.49093,-0.44442 -0.49092,-0.444414 -0.40825,0.157094 -0.40876,0.15658 -0.18448,-0.299204 -0.18501,-0.299723 0.42272,-0.467155 0.42271,-0.467155 v -0.391708 -0.39119 l 0.38861,-0.513664 0.38809,-0.513664 0.008,-0.978751 0.008,-0.978235 -0.63459,-0.68523 -0.63459,-0.684713 0.29973,-0.794266 0.29972,-0.79375 -0.39274,-0.624252 -0.39274,-0.624251 -1.12448,-1.471228 -1.12448,-1.470711 v -1.094507 -1.094507 l -0.51056,-0.133325 -0.51108,-0.133842 0.14728,-0.383439 0.14727,-0.383439 -0.46922,-0.343132 -0.46922,-0.343131 -0.0465,-1.165304 -0.0465,-1.16582 -0.21032,-0.661458 -0.21032,-0.661459 -0.4067,-0.463021 -0.40617,-0.46302 h -0.73381 -0.73381 l -0.56378,-1.506885 -0.56379,-1.507402 0.15864,-0.633036 0.15917,-0.63252 0.3855,0.319878 0.38602,0.320393 v 0.338481 0.338481 l 0.94672,0.558105 0.94619,0.558622 0.24443,-0.150895 0.24391,-0.150895 v -0.47749 -0.476974 l -0.79375,-0.998905 -0.79375,-0.998906 v -0.609265 -0.609782 l 0.22738,-0.14056 0.22789,-0.140559 0.70022,0.786515 0.70073,0.786515 h 0.5271 0.5271 v -0.09095 -0.09147 l -0.66094,-0.768428 -0.66146,-0.768945 v -0.573092 l -5.2e-4,-0.573609 0.33073,-0.116271 0.33073,-0.116272 0.60358,0.223242 0.60307,0.222725 0.24029,-0.632519 0.24081,-0.63252 1.12758,-1.083655 1.1281,-1.083654 0.4098,-0.02791 0.40927,-0.02842 0.70487,0.04599 0.70487,0.04548 0.22117,-0.390157 0.22118,-0.38964 1.03714,-0.08785 1.03766,-0.08785 0.10904,0.327629 0.10956,0.328145 h 0.24029 0.23978 l 0.79272,-0.829407 z m 11.12025,3.690215 0.66146,0.301273 0.66094,0.301274 v 0.945678 0.945162 l 0.77256,0.269235 0.77256,0.269751 0.14521,0.378271 0.14521,0.378272 h 0.39585 0.39584 l 0.29662,-0.554489 0.29662,-0.553971 1.29346,0.112138 1.29295,0.112655 0.0987,-0.285771 0.0987,-0.285771 -0.20567,-0.727604 -0.20516,-0.727604 h 1.28933 1.28933 l 0.38861,0.554488 0.38809,0.554488 0.55293,-0.1757 0.55242,-0.175183 V 34.00207 33.744722 l 0.54312,0.505912 0.54312,0.505912 0.0429,0.571542 0.0429,0.571024 0.73742,-0.161747 0.7369,-0.162264 0.14263,0.372587 0.14315,0.37207 -0.24857,0.641305 -0.24856,0.640788 -0.48989,0.466121 -0.4899,0.465605 -0.62735,0.475423 -0.62683,0.474906 0.0155,1.1467 0.016,1.146183 0.84284,0.869715 0.84284,0.869197 -0.1819,1.210262 -0.18138,1.210263 h -0.49713 -0.49764 l -0.16382,-0.265101 -0.16381,-0.265616 -0.52193,0.279569 -0.52194,0.279053 -0.28163,-0.807703 -0.28164,-0.807702 h -0.59686 -0.59686 l -0.76637,0.669209 -0.76636,0.668693 -0.33073,0.267684 -0.33073,0.267167 v 0.785999 0.785482 l -0.75602,0.791683 -0.75654,0.791166 h -1.5379 -1.53789 l -0.47904,0.433565 -0.47904,0.433049 -0.39015,-0.323495 -0.39016,-0.324011 -0.27647,0.170532 -0.27595,0.170532 v 0.906922 0.906921 l -0.9586,0.400493 -0.95808,0.400492 h -0.0579 -0.0574 l -0.34003,-1.029911 -0.34003,-1.030428 0.16278,-0.262517 0.16226,-0.263033 -0.39377,-0.327112 -0.39429,-0.326595 v -0.620117 -0.620117 l -0.4532,-0.950846 -0.45321,-0.95033 0.35554,-0.220142 0.35553,-0.219624 -0.49764,-0.677478 -0.49765,-0.676962 -0.7276,-0.166915 -0.72761,-0.166398 v -0.193786 -0.193787 l 0.84646,-0.625802 0.84595,-0.625801 1.27382,-0.04496 1.27383,-0.04444 0.10903,-0.109038 0.10852,-0.10852 0.0791,-1.932699 0.0785,-1.932698 0.33848,-0.280603 0.33796,-0.280603 v -0.490926 -0.49041 l -0.66146,-0.433565 -0.66146,-0.433565 v -0.519348 -0.519349 l 1.05885,-1.080037 z m 15.70912,2.995166 h 0.60513 0.60565 l 0.43356,0.661458 0.43305,0.661458 h 2.07067 2.07068 l 0.16381,0.264584 0.1633,0.264583 h 0.38809 0.38757 l 0.23771,-0.625285 0.23772,-0.625285 0.45268,-0.173633 0.45269,-0.174149 0.95653,0.170015 0.95705,0.169499 0.66145,0.587044 0.66146,0.587561 0.8599,0.338998 0.85989,0.33848 v 0.248047 0.248047 l 0.24288,-0.149862 0.2434,-0.150378 0.98444,0.928109 0.98443,0.928625 h 0.50281 0.5023 l 0.99942,0.510047 0.99942,0.509529 0.37931,0.467155 0.3793,0.467155 -0.30334,-0.181901 -0.30282,-0.181384 -0.1664,0.433565 -0.1664,0.433565 0.4098,0.453203 0.40979,0.452685 -0.36225,0.301274 -0.36277,0.300757 -0.80719,0.16123 -0.80667,0.161747 -0.35863,-0.735872 -0.35812,-0.735356 -0.62787,-0.04393 -0.62735,-0.04393 -0.24546,-0.438733 -0.24546,-0.438732 h -0.2372 -0.23668 l -0.3452,0.71055 -0.34519,0.710551 0.85989,0.8816 0.8599,0.882117 v 0.213424 0.21394 l -0.68678,0.641305 -0.68678,0.641304 -0.37414,0.719853 -0.37465,0.719853 -0.58705,0.314192 -0.58704,0.314193 -0.79634,0.0925 -0.79581,0.0925 -0.43925,0.139526 -0.43874,0.139526 0.1292,0.494027 0.12919,0.494544 -0.50695,0.16123 -0.50694,0.160714 0.11368,0.856795 0.11421,0.856795 0.31936,0.264584 0.31884,0.264583 0.17363,0.463021 0.17415,0.463021 h -0.26561 -0.26562 l 0.27389,0.511596 0.27388,0.512114 v 0.810803 0.81132 h -0.22066 -0.22014 l -0.009,0.463021 -0.009,0.463021 0.29973,0.396875 0.30024,0.396875 -0.0222,0.396875 -0.0217,0.396875 -0.20102,0.856795 -0.20154,0.856795 -0.23874,0.147795 -0.23875,0.147277 -0.50953,-0.272334 -0.50953,-0.272852 -0.91829,-1.65778 -0.91829,-1.65778 -0.001,-1.984375 -10e-4,-1.984375 0.15968,-0.264583 0.16019,-0.264583 0.0119,-0.264584 0.0114,-0.264583 0.85524,-1.645895 0.85525,-1.646411 v -0.486275 -0.485758 l -0.39688,-0.513664 -0.39687,-0.513664 -0.41341,0.529167 -0.41393,0.529167 0.10387,0.732771 0.10387,0.732255 -0.3483,0.289388 -0.3483,0.289388 -0.41703,-0.160197 -0.41703,-0.160196 0.16485,-0.266134 0.16433,-0.26665 h -0.28009 -0.28008 v -0.381373 -0.381372 l -0.27595,-0.170532 -0.27647,-0.170532 -0.40566,0.336414 -0.40515,0.336413 0.17157,0.91519 0.17156,0.914673 0.38706,0.387056 0.38654,0.387057 -0.30592,0.368452 -0.30593,0.36897 h -0.73277 -0.73277 l -0.16588,-0.661458 -0.1664,-0.661458 h -0.28422 -0.28422 l -0.13849,0.529166 -0.13798,0.529167 h -0.51573 -0.51573 l -0.49248,-0.26355 -0.49248,-0.26355 -1.17512,0.503845 -1.17512,0.503846 -0.17053,0.678511 -0.17002,0.678512 -0.51779,0.482141 -0.5178,0.482141 -0.0744,0.914156 -0.0744,0.913639 0.59945,0.08527 0.59893,0.08527 -0.11886,0.192236 -0.11834,0.192236 0.1943,0.31471 0.19482,0.315226 0.85267,-0.321944 0.85317,-0.321944 0.45631,0.30024 0.4563,0.300757 -0.0636,0.281119 -0.0636,0.28112 0.52658,0.282153 0.52658,0.281637 v 0.799951 0.799951 l -0.26458,-0.163297 -0.26459,-0.163298 v 0.280087 0.280086 h 0.21653 0.21601 l 0.43976,1.39423 0.43925,1.394226 0.16485,1.78077 0.16536,1.78077 h -0.28783 -0.28732 l 0.16639,1.59577 0.16692,1.59577 -0.50126,1.04438 -0.50178,1.04438 -0.26458,0.0977 -0.26614,0.0982 -0.79375,-0.33021 -0.79375,-0.33021 -0.13229,-0.73743 -0.13229,-0.73742 -0.8599,-0.22272 -0.85989,-0.22273 v -0.33641 -0.33642 l 0.32039,-0.32039 0.3204,-0.32039 -0.0713,-1.92288 -0.0718,-1.92288 0.29146,-0.76585 0.29093,-0.76636 -0.16123,-0.734322 -0.16123,-0.734839 -1.06556,-1.097607 -1.06557,-1.098124 -0.70228,0.133842 -0.70229,0.133841 -0.59531,0.188103 -0.59531,0.188102 v -0.584977 -0.584461 l -1.45521,-1.60817 -1.45521,-1.607654 0.005,-3.196187 0.005,-3.196188 0.6351,-0.601513 0.63459,-0.602031 0.17777,-1.051615 0.17776,-1.052132 h 0.21343 0.21342 l 0.62322,-0.656808 0.62322,-0.656807 0.43718,-0.0047 0.43666,-0.0047 0.28733,0.823205 0.2868,0.823206 0.64906,-0.162781 0.64853,-0.162781 0.1571,0.254249 0.15658,0.253731 0.56586,-0.20929 0.56585,-0.209289 0.37052,-1.270207 0.37001,-1.270207 -0.94465,-0.967383 -0.94413,-0.967382 v -0.963766 -0.964282 l 1.04852,-0.744657 1.04851,-0.744658 0.31988,-0.759643 0.31936,-0.759127 0.53382,-0.497644 z m -45.54864,0.294038 0.63096,0.750342 0.63149,0.749825 0.66198,0.166398 0.66249,0.166398 -0.004,0.325562 -0.004,0.325562 -0.36277,1.043347 -0.36328,1.043864 0.61546,0.484208 0.61547,0.484208 0.40566,0.81287 0.40514,0.812354 -0.50178,0.984436 -0.50229,0.984953 -0.41651,0.345198 -0.416,0.345199 v 0.497127 0.496611 h 0.75293 0.75241 l 0.43459,-0.480591 0.43512,-0.480074 0.1726,-0.908989 0.1726,-0.908471 0.25993,-0.33073 0.25942,-0.330729 h 0.38447 0.38447 l -0.0579,0.727604 -0.0579,0.727605 0.19843,0.46302 0.19844,0.463021 h 0.34313 0.34262 l 0.27647,0.79375 0.27698,0.79375 h 0.25322 0.25373 l -0.13849,0.529167 -0.1385,0.529167 h 0.57103 0.57051 l -0.0615,1.047998 -0.062,1.047998 0.98805,1.434021 0.98754,1.434021 0.51831,0.469738 0.51883,0.469222 v 0.505396 0.505395 l -0.28732,0.536919 -0.28732,0.536918 0.51728,0.569991 0.51728,0.570508 0.18346,0.774112 0.18396,0.774113 -0.45268,0.945679 -0.45217,0.945679 -0.22738,0.396875 -0.22737,0.396875 -0.15917,0.330729 -0.15916,0.330729 0.15245,0.396878 0.15244,0.39687 h 0.61702 0.6165 l 0.31781,0.3173 0.31729,0.31781 v 0.74052 0.74104 h 0.52917 0.52916 v 0.26406 0.26356 l 0.92605,1.02526 0.92604,1.02474 v 0.81287 0.81287 l -0.56379,0.39481 -0.56431,0.39532 0.16227,0.4222 0.16174,0.4222 -0.65629,0.24959 -0.65629,0.2496 v 0.36277 0.36277 l -0.41599,0.83405 -0.41652,0.83458 h -0.37723 -0.37879 l -0.008,-0.19844 -0.008,-0.19844 -0.68006,-0.77411 -0.68058,-0.77411 -0.47904,0.2992 -0.47956,0.29921 -0.31936,-0.38499 -0.31988,-0.38499 h -1.02578 -1.02577 l -0.52917,-0.52916 -0.52917,-0.52917 v -0.39688 -0.39687 h -0.77049 -0.76998 l -0.55707,-1.15084 -0.55707,-1.15031 -0.7891,-0.70384 -0.78962,-0.70331 v -0.37672 -0.37724 l -0.46612,-0.1478 -0.46612,-0.14779 -0.31988,-1.34669 -0.31988,-1.346686 0.39843,-0.607198 0.39791,-0.607715 -0.30696,-0.673861 -0.30696,-0.673343 -0.58446,-0.146761 -0.58446,-0.146762 0.0517,-0.468705 0.0522,-0.469222 0.1478,-0.396875 0.14831,-0.396875 0.11782,-0.396875 0.11834,-0.396875 -0.41651,-0.72347 -0.41652,-0.72347 0.30489,-0.86403 0.30438,-0.86403 -0.11214,-0.79375 -0.11214,-0.79375 -0.16536,-1.594735 -0.16537,-1.595251 0.70229,-1.257804 0.7028,-1.258321 0.13332,-1.446424 0.13384,-1.446423 h -0.33021 -0.32969 l 0.50384,-0.368453 0.50333,-0.367936 -0.35295,-0.425814 -0.35347,-0.425297 h -0.36432 -0.36432 v -0.529167 -0.529166 h -0.21394 -0.21394 l -0.48265,-0.352951 -0.48266,-0.352433 0.46147,-0.703833 0.46095,-0.703833 -0.16536,-0.658358 -0.16537,-0.658874 0.53279,-0.332796 0.5333,-0.332796 v -0.216525 -0.216524 l -0.26459,0.163298 -0.26458,0.163297 v -0.367936 -0.368453 l 0.16175,-0.161747 z m -27.46965,5.526795 h 0.61805 0.61754 l 0.7183,0.449068 0.7183,0.449068 0.0698,0.03927 0.0692,0.03979 -0.43511,1.032495 -0.43564,1.033012 0.16175,4.009058 0.16227,4.009574 0.43149,1.270724 0.4315,1.27124 -0.63665,0.547253 -0.63614,0.547254 -1.77353,0.35295 -1.77302,0.352433 -0.35244,-0.135392 -0.35295,-0.135392 0.0703,-1.150318 0.0703,-1.1498 0.0388,-1.058334 0.0388,-1.058333 -0.0217,-0.330729 -0.0217,-0.330729 h -0.2837 -0.28319 l -0.37775,0.377754 -0.37828,0.378272 v 0.251147 0.251148 l -0.40876,0.338997 -0.40927,0.339514 0.13849,0.360702 0.13849,0.360184 -0.45733,0.479041 -0.45682,0.47904 -0.0662,0.309026 -0.0661,0.308508 h 0.22221 0.22221 l 0.30696,0.673861 0.30696,0.67386 v 0.325562 0.325561 l -0.81546,0.892969 -0.81597,0.892969 -0.216,0.568441 -0.21601,0.56844 0.13952,0.730188 0.13953,0.730705 -0.74466,0.77721 -0.74517,0.77773 h -0.46716 -0.46715 l -0.43047,-0.59531 -0.43098,-0.595311 -0.78341,-1.399398 -0.78342,-1.398881 -0.75757,0.538985 -0.75706,0.539502 h -0.53279 -0.53278 l -0.41858,-0.160714 -0.41858,-0.160713 v -0.227893 -0.227893 l 0.35295,0.135392 0.35243,0.135392 v -0.39687 -0.396358 l -0.19223,0.118856 -0.19224,0.118856 -0.19068,-0.726054 -0.19069,-0.725537 -0.21601,0.529166 -0.21549,0.529167 -0.0186,-0.722437 -0.0186,-0.721919 -0.42994,-1.075387 -0.43047,-1.07487 0.14883,-1.110526 0.14883,-1.110527 0.58963,-0.476973 0.58962,-0.477491 0.38241,0.146762 0.38292,0.146761 -0.15916,-0.414445 -0.15916,-0.414445 0.85731,-0.362252 0.85731,-0.362252 1.01131,-1.04283 1.01079,-1.042314 0.34778,-1.027844 0.34727,-1.027844 1.02267,-0.706934 0.93483,-0.646472 -0.43202,-0.359151 -0.43511,-0.360702 0.49299,-0.492476 0.49248,-0.492477 0.95033,0.396875 0.95033,0.396875 -0.10852,-0.587561 -0.10852,-0.587561 0.15658,0.328662 0.15658,0.328662 0.50746,-0.271818 0.50798,-0.271818 v -0.643888 -0.643888 l 0.44028,0.168982 0.44028,0.168982 -0.19172,-0.310059 -0.1912,-0.310059 0.69453,-0.264066 0.69453,-0.264067 0.44546,0.0041 0.44596,0.0041 -0.39687,0.268201 -0.39688,0.268718 0.79375,-0.174667 0.79375,-0.174149 0.25167,-0.230477 z m 23.71484,0.471806 0.96945,0.181901 0.96893,0.181901 0.8785,0.878499 0.87901,0.879016 v 0.341581 0.341582 l -0.38395,-0.513664 -0.38344,-0.513664 0.14986,0.595313 0.14986,0.595312 h 0.2341 0.23357 l -0.004,0.463021 -0.004,0.463021 -0.25632,-0.396875 -0.25631,-0.396875 -0.004,0.447518 -0.004,0.447001 0.24649,0.152445 0.24702,0.152446 -0.36174,0.697115 -0.36173,0.696598 -0.34778,0.214974 -0.3483,0.214974 -0.0336,1.861902 -0.0341,1.861902 h 0.22841 0.22893 l -0.10904,1.611788 -0.10904,1.611788 -0.12764,0.128157 -0.12764,0.127641 0.23461,0.819588 0.23513,0.819072 -0.27027,0.325561 -0.27027,0.325562 0.3421,0.119372 0.34158,0.119373 -0.50488,0.568957 -0.50487,0.568958 0.31264,0.68678 0.31316,0.686779 0.50022,0.130742 0.50023,0.130741 -0.12299,1.321367 -0.12247,1.321365 0.30024,0.36225 0.30024,0.36174 -0.15658,0.25373 -0.15658,0.25321 0.33228,0.13436 0.33228,0.13384 -0.49144,0.0207 -0.49145,0.0212 0.15762,0.41031 0.15761,0.41083 -0.26148,-0.16175 -0.26149,-0.16174 v 0.2806 0.28009 l -0.2036,-0.0662 -0.20361,-0.0661 -0.6413,0.59686 -0.64182,0.59686 -0.41186,-0.11834 -0.41135,-0.11834 -0.79375,-0.0667 -0.79375,-0.0672 -0.60254,0.32918 -0.60307,0.32918 0.14004,0.22686 0.14005,0.22634 -0.51418,-0.13435 -0.5147,-0.13436 -0.84904,0.42374 -0.84956,0.42375 h -0.59273 -0.59221 l -0.16072,0.41858 -0.16071,0.41858 v 0.48834 0.48886 l -0.37982,0.37982 -0.38034,0.38034 -0.22996,0.88832 -0.23048,0.88832 0.3576,1.03766 0.3576,1.03818 0.36535,0.5209 0.36484,0.5209 -0.15761,0.41031 -0.1571,0.40979 0.29146,-0.18035 0.29145,-0.17983 0.40514,0.57826 0.40515,0.57877 -0.93121,1.03043 -0.93069,1.03043 0.96479,1.76888 0.96532,1.76889 0.70332,0.74569 0.70331,0.74569 -0.46302,0.25941 -0.46302,0.25994 v 1.17098 1.17151 l -0.64957,0.42581 -0.65009,0.42582 -0.31729,-0.19586 -0.31678,-0.19585 0.18862,0.30541 0.18862,0.3054 -0.21394,0.0233 -0.21394,0.0233 -1.25677,0.0966 -1.25678,0.0966 V 88.2494 87.98895 l -1.25677,-1.25315 -1.25677,-1.25367 -1.25677,-1.125 -1.25677,-1.12551 v -0.21135 -0.21136 l 0.67851,-0.59015 0.678,-0.58962 -0.0909,-0.4501 -0.0915,-0.45011 -0.65319,0.076 -0.65319,0.0754 -0.44338,0.047 -0.44391,0.047 0.11731,0.19017 0.11731,0.18966 -0.71159,0.0842 -0.71158,0.0842 -0.0424,0.59531 -0.0424,0.59531 h 0.48472 0.48524 v 0.14986 0.14935 l -0.27388,0.51211 -0.27389,0.5116 h -0.61133 -0.61081 l -0.43822,-0.48369 -0.4377,-0.48421 V 82.75866 82.4486 h -0.50074 -0.50127 l -0.15709,-0.41031 -0.15761,-0.41031 -0.37466,0.34416 -0.37465,0.34417 0.003,0.13229 0.003,0.13229 -0.19224,0.59531 -0.19172,0.59531 h -0.35915 -0.35915 l -0.40359,-0.78083 -0.4036,-0.78031 v -1.55391 -1.55443 l -0.92552,-1.30328 -0.92553,-1.30328 -0.59427,-0.14366 -0.5948,-0.14417 -0.0868,-0.45114 -0.0868,-0.45165 h 0.51935 0.51934 l 0.54726,-0.46302 0.54777,-0.46302 0.42529,-1.19063 0.4253,-1.19062 0.15141,-0.48473 0.1509,-0.48472 -0.57671,-1.0263 -0.57723,-1.02681 -0.15503,-1.31051 -0.15503,-1.31052 -1.27434,-0.82579 -1.27382,-0.82527 -0.17312,-1.15497 -0.17311,-1.155483 0.19068,-0.62115 0.19069,-0.621668 0.26768,-0.33383 0.26717,-0.334346 0.37414,0.311092 0.37414,0.310575 -0.29301,0.180868 -0.29301,0.180867 0.81029,0.02325 0.80977,0.02325 0.28267,-0.52865 0.28267,-0.528133 -0.31523,-0.380338 -0.31522,-0.379822 h -0.36484 -0.36432 l -0.0315,-0.330729 -0.031,-0.330729 0.0377,-0.218075 0.0382,-0.218075 -0.2713,0.167432 -0.2713,0.167432 V 58.548892 58.16597 l 0.93069,-0.174666 0.93069,-0.174667 0.25218,0.156063 0.25218,0.156063 0.16847,-0.67076 0.16795,-0.670243 0.24288,0.150378 0.24339,0.149862 -0.0729,-0.236678 -0.0729,-0.236679 0.78548,-0.679028 0.78548,-0.678511 -0.32556,-1.28726 -0.32556,-1.286743 -0.25322,-1.984375 -0.25321,-1.984375 -0.008,-1.878956 -0.008,-1.878438 0.2992,-0.899687 0.29921,-0.899169 0.29611,-0.29869 0.2961,-0.29869 1.94459,0.219108 1.94406,0.219108 1.42989,0.29714 1.42989,0.296622 0.29094,0.544153 0.29145,0.543636 -0.35812,0.230994 -0.35811,0.230994 0.36431,0.235127 0.36484,0.235128 -0.16898,0.273368 -0.1695,0.273885 -0.78755,0.173117 -0.78755,0.173116 -0.15141,0.243912 -0.15089,0.24443 h -0.89297 -0.89349 l -0.71055,-0.270268 -0.71107,-0.270268 -0.34158,0.283704 -0.3421,0.283704 1.16789,1.201477 1.16789,1.201477 v 0.363285 0.363285 l 0.57412,0.307475 0.57464,0.307475 0.34107,-0.467155 0.34158,-0.466638 -0.27595,-0.515731 -0.27544,-0.515214 0.11679,-0.116789 0.11731,-0.117305 0.69815,0.265617 0.69814,0.265616 v 0.22686 0.226859 h 0.4129 0.41289 l 0.41755,-0.815454 0.41806,-0.81597 0.28112,-0.180868 0.28112,-0.180868 0.18087,0.111622 0.18138,0.112137 0.31265,-0.377238 0.31315,-0.377237 -0.25683,-0.479558 -0.25683,-0.480074 -0.18862,-1.256771 -0.1881,-1.25677 h 0.36794 0.36793 l 0.58808,0.411861 0.58808,0.411861 v 0.778764 0.778764 h 0.67696 0.67696 l -0.18448,-0.29869 -0.18501,-0.299207 0.3514,0.117306 0.35089,0.116788 0.47955,-0.479557 0.47956,-0.479557 h 0.41238 0.41238 l -0.1447,-0.234611 -0.14521,-0.234611 0.39378,-0.327112 0.39429,-0.326595 v 0.288354 0.288872 l 0.39687,-0.152446 0.39688,-0.152445 v -0.251664 -0.251665 l -0.33073,0.19327 -0.33073,0.19327 0.48886,-0.558105 0.48937,-0.558106 0.65268,0.248047 0.65215,0.248047 h 0.62942 0.62891 l 0.94567,-0.557589 z m -89.708734,0.704349 h 0.86817 0.86816 l -0.1633,0.463021 -0.16329,0.463021 -0.45682,0.529167 -0.45682,0.529166 -0.29818,0.579293 -0.29869,0.579293 0.39843,1.528072 0.39791,1.528589 0.39119,0.391191 0.39119,0.39119 0.94051,-0.448551 0.93999,-0.448035 h 0.62012 0.62012 l 0.32918,0.396875 0.32969,0.396875 -0.62787,0.02067 -0.62786,0.02067 0.31626,0.128675 0.31574,0.128674 -0.14521,0.377238 -0.1447,0.377755 0.42427,0.16278 0.42426,0.162781 v 0.33693 0.336414 l -1.16892,0.958081 -1.16892,0.958081 h -0.51521 -0.51522 l -0.7028,0.552938 -0.70331,0.552938 0.0372,0.306958 0.0377,0.306958 -0.0315,0.463021 -0.0315,0.46302 h -0.70022 -0.70022 l -1.13533,0.930176 -1.13533,0.930176 -0.1664,0.525033 -0.16691,0.525032 -0.44494,-0.0083 -0.44545,-0.0083 -0.39687,-0.221175 -0.39688,-0.221176 -10.58333,-0.188619 -10.583334,-0.188102 -1.094507,0.03152 -1.095023,0.03152 -0.442867,-0.442867 -0.442867,-0.442867 0.138493,-2.676839 0.138493,-2.676322 0.163814,-1.752865 0.163297,-1.752864 1.223698,-0.167949 1.223698,-0.167948 0.197404,0.35295 0.197404,0.352433 1.931148,-0.04754 1.931149,-0.04754 0.294555,-0.03824 0.294039,-0.03772 0.995288,-0.790649 0.994772,-0.79065 0.599963,0.150379 0.60048,0.150895 0.186552,-0.302307 0.186552,-0.302307 0.437699,0.875915 0.437183,0.876432 0.661458,0.03979 0.661459,0.04031 0.396875,0.02945 0.396875,0.02997 1.182873,1.066601 1.182357,1.066085 1.331185,-0.07803 1.330668,-0.07752 0.08113,-0.567924 0.08113,-0.567407 0.470256,-0.426331 0.470772,-0.425813 0.857309,0.427364 0.85732,0.42788 0.83819,0.03669 0.83819,0.03721 0.13436,-0.923458 0.13384,-0.922941 0.39687,-0.07235 0.39688,-0.07235 0.62942,0.929659 0.62942,0.929142 h 0.23047 0.23048 l 0.0248,-0.463021 0.0248,-0.463021 -0.008,-1.190625 -0.008,-1.190625 0.69712,-1.058333 0.69711,-1.058333 0.65888,-0.727604 z m 58.744214,1.734262 -0.0315,0.330729 -0.031,0.330729 0.0548,0.382405 0.0543,0.379822 0.0858,-0.05943 0.007,-0.351399 0.007,-0.3514 0.20722,-0.330729 0.20671,-0.330729 h -0.28009 z m -94.754416,2.318721 0.92139,0.702283 0.921391,0.702799 1.230933,0.22996 1.231449,0.22996 v -0.112654 -0.113172 l 0.588078,0.411862 0.588078,0.411861 h 0.49351 0.494026 l -0.167948,1.653646 -0.168465,1.653645 -0.136943,2.870626 -0.136942,2.870626 0.454752,0.502812 0.45527,0.502811 h 0.752409 0.752925 v 0.628903 0.628902 l 0.425297,0.35295 0.425297,0.35295 -0.12299,1.278992 -0.12299,1.279511 0.503329,0.63975 0.502812,0.63976 -0.391191,0.75654 -0.390674,0.75602 -0.399975,0.33177 -0.399459,0.33228 -0.676445,-1.33429 -0.675927,-1.33428 -0.0057,-0.47181 -0.0057,-0.47181 -0.853178,-0.39687 -0.852661,-0.39688 -0.307992,-0.630965 -0.307991,-0.630969 -0.355017,-0.224793 -0.354501,-0.224792 -0.699699,-0.0041 -0.700215,-0.0041 -0.622701,-0.656808 -0.623218,-0.656807 -0.19172,-0.0052 -0.191719,-0.0047 -0.379305,0.727604 -0.378788,0.727604 -0.818555,0.478007 -0.818038,0.478007 V 61.71304 61.301179 H 17.403266 16.8741 v 0.280086 0.280087 l -0.239779,-0.148312 -0.239779,-0.148311 0.123507,0.473873 0.124023,0.473873 -1.584399,1.511015 -1.583883,1.51102 h -0.557041 -0.557072 l -0.171565,-0.447 -0.171566,-0.44752 0.24598,-0.0832 0.24598,-0.0827 0.853177,-0.52038 0.853178,-0.51986 -0.588594,-0.907442 -0.588595,-0.906921 -0.79375,-0.357601 -0.79375,-0.357601 -0.0925,-0.65474 -0.09198,-0.654224 -0.63562,-0.754993 -0.6351029,-0.754992 v -0.886251 -0.886768 l 0.7234699,-0.568957 0.72347,-0.569474 1.112077,0.166914 1.112077,0.166915 0.302307,-0.565857 0.302824,-0.56534 -0.164848,-0.164848 -0.164848,-0.164847 -1.238167,-0.01085 -1.238168,-0.01085 -0.245979,-0.696598 -0.246497,-0.697115 0.164331,-0.427364 0.164331,-0.427881 h 0.791683 0.791683 l 0.333313,0.356568 0.333313,0.357084 0.470772,-0.123507 0.470773,-0.12299 v -0.244429 -0.24443 l -0.560173,-0.757576 -0.560689,-0.758094 0.168982,-0.273368 0.169498,-0.273368 -0.468705,-0.299207 -0.468705,-0.299206 0.661458,0.175183 0.661459,0.175183 0.727604,0.137976 0.727604,0.137459 V 49.17376 48.628057 l 0.595312,-0.636137 0.595313,-0.636654 1.353406,-0.344165 z m 159.642956,3.227193 0.34727,0.287838 0.34726,0.288354 0.52865,-0.28267 0.52865,-0.283186 h 1.60456 1.60507 v 2.996199 2.995683 l 1.45521,1.490348 1.4552,1.490865 v 0.657324 0.657325 l 0.2279,0.14056 0.22841,0.141076 1.13481,-0.445451 1.1343,-0.445967 1.03146,1.180289 1.03146,1.18029 -0.15399,1.190623 -0.154,1.19063 -0.14883,1.40353 -0.14883,1.40353 -0.43666,-0.0837 -0.43667,-0.0842 -1.2702,-1.71669 -1.26969,-1.71618 -0.59015,-0.76687 -0.59014,-0.766881 -0.52194,0.272851 -0.52244,0.272852 -0.79324,0.235648 -0.79375,0.23564 -0.1881,1.50844 -0.18862,1.50791 -0.41548,0.80357 -0.41548,0.80357 -0.66972,-0.16795 -0.66921,-0.16795 -1.02371,0.46147 -1.02423,0.46199 -1.80402,-0.17311 -1.80403,-0.1726 -0.52916,-0.0222 -0.52917,-0.0217 -0.52917,0.16019 -0.52916,0.16072 -0.66146,-0.38499 -0.66146,-0.38551 -0.76223,-0.009 -0.76274,-0.009 -0.8909,-0.55087 -0.89142,-0.55035 V 65.94756 65.6282 l 0.50901,-0.99839 0.50901,-0.99839 -0.37672,-0.90123 -0.37672,-0.901241 v -0.247014 -0.24753 l 0.79375,-0.276469 0.79375,-0.276985 v -0.490926 -0.490927 l 0.94568,-0.912089 0.94568,-0.911572 0.49609,0.661459 0.49558,0.661458 0.4346,0.486792 0.43408,0.486792 0.58394,-0.548287 0.58395,-0.548287 -0.0884,-1.526005 -0.0884,-1.526005 -0.0382,-0.821655 -0.0377,-0.821656 0.34416,-0.83199 0.34469,-0.831991 h 0.48162 0.48163 l 0.16329,-0.264583 0.1633,-0.264583 h 0.51005 0.50953 l 0.30127,-1.195793 z m -80.122739,0.0098 h 0.45578 0.45578 l 0.489369,0.540535 0.48938,0.540536 -0.40411,-0.15503 -0.40411,-0.155029 v 0.393775 0.393774 l 0.46767,-0.250114 0.46767,-0.250114 h 0.14883 0.14883 l 0.40153,0.859896 0.40152,0.859896 -0.12764,-0.463021 -0.12816,-0.463021 h 0.24133 0.24133 l 0.41186,0.588078 0.41186,0.588078 v 0.475423 0.475423 l -0.67747,1.07332 -0.67748,1.073319 -0.95033,0.396875 -0.950329,0.396875 -0.44338,-0.115755 -0.44389,-0.116272 -0.39224,0.294556 -0.39222,0.294038 -0.17415,0.463021 -0.17363,0.463021 h -0.28836 -0.22634 l -0.13798,0.223759 -0.18862,0.305408 -0.31522,-0.01085 -0.31523,-0.01034 -1.0511,-0.524515 -1.051095,-0.523999 -0.33796,0.129707 -0.33796,0.129708 v -0.219625 -0.219624 l -0.63046,0.120406 -0.63045,0.120406 -0.18965,-0.306958 -0.18965,-0.306958 0.17311,-0.173633 0.17312,-0.173116 0.23564,0.381889 0.23565,0.381372 0.21084,-0.21084 0.21084,-0.210323 -0.48318,-0.270268 -0.48317,-0.270268 0.15968,-0.636136 0.15968,-0.635621 h -0.28526 -0.28525 l 0.13953,-0.226342 0.14004,-0.226343 -0.65319,0.12454 -0.65371,0.125057 V 54.729983 54.46695 l 0.40308,-0.334347 0.40256,-0.334346 -0.13591,-0.428398 -0.13591,-0.428914 0.7674,-0.724504 0.76791,-0.724503 h 0.42064 0.42065 v 0.248047 0.248047 l 0.52917,-0.03979 0.52916,-0.03979 V 51.559636 51.21082 l 0.859895,0.04341 0.8599,0.04341 0.74982,-0.30179 0.74983,-0.30179 0.3085,0.176733 0.30852,0.176733 -0.19586,-0.216524 -0.19637,-0.216524 0.29455,-0.355017 z m -37.628205,7.540625 h 1.5875 1.5875 l -0.0662,0.295589 -0.0661,0.295589 0.52245,0.0863 0.52245,0.08682 0.18294,-0.295072 0.18241,-0.295589 0.42737,1.02371 0.42788,1.02371 -0.16588,1.106909 -0.16588,1.107426 0.33228,0.205672 0.33279,0.205156 0.7767,-0.9679 0.7767,-0.9679 h 0.47542 0.47491 l 0.16071,0.41858 0.16071,0.418062 v 0.498677 0.498161 l 0.48834,0.261483 0.48886,0.261482 0.0227,0.80667 0.0227,0.80615 0.15968,0.50281 0.15917,0.5023 0.58859,0.14779 0.5886,0.1478 0.9896,1.46916 0.9896,1.46916 v 0.41083 0.41134 l -0.2744,0.51212 -0.27388,0.51211 -1.26401,0.64027 -1.264,0.64079 -0.34624,0.41754 -0.34675,0.41755 h -0.97513 -0.97565 l -0.46302,0.33848 -0.46302,0.33848 0.28061,0.73691 0.28008,0.7369 v 0.90899 0.90899 h 0.92604 0.92604 v 0.5364 0.53589 l -0.8015,0.85317 -0.80098,0.85266 -0.45579,0.92605 -0.45527,0.92604 -0.57257,0.0817 -0.57258,0.0811 -0.17363,-0.54622 -0.17312,-0.54622 0.29508,-1.42369 0.29559,-1.42368 -0.16847,-0.6718 -0.16846,-0.67179 -0.46716,-0.42272 -0.46715,-0.42271 -0.42117,0.16175 -0.42168,0.16175 -0.66456,0.87126 -0.66507,0.87178 -0.9772,0.18345 -0.9772,0.18345 -0.74208,-0.5488 -0.74259,-0.5488 h -1.06867 -1.06918 v -1.97146 -1.97145 l 0.41496,-1.53428 0.41496,-1.53427 -0.0212,-1.64796 -0.0212,-1.64796 1.08934,-0.72089 1.08934,-0.72089 -0.19637,-1.5999 -0.19637,-1.599901 0.0222,-0.497644 0.0222,-0.497127 0.54312,-0.578259 0.54312,-0.577743 v -0.975134 z m 36.040695,0.132291 -0.36277,0.447518 -0.36328,0.447518 0.37155,-0.223759 0.27233,-0.164331 0.14987,-0.242362 0.16329,-0.264584 h -0.11524 z m -69.427283,1.308964 8.532812,0.185519 8.532813,0.186035 0.10852,0.09612 0.108521,0.0956 0.07441,1.920296 0.07441,1.91978 -0.381372,0.58601 -0.381372,0.58601 -0.001,1.79524 -0.0015,1.79524 -0.171049,2.57969 -0.170532,2.57968 h -7.088457 -7.087939 l -0.19482,-0.31522 -0.19482,-0.31471 0.05788,-1.11983 0.05788,-1.11931 -0.506429,-0.48369 -0.506946,-0.48369 -0.449585,-0.88419 -0.449585,-0.88367 0.37052,-0.43925 0.37052,-0.43873 0.557589,-0.97823 0.557589,-0.97824 -0.512114,-0.65112 -0.512113,-0.65112 v -1.296565 -1.296562 l -0.388607,-0.513663 -0.38809,-0.513664 -0.0088,-0.482141 z m 17.611328,0.0646 h 1.723926 1.723924 l 1.03611,0.323494 1.0356,0.323495 -0.10077,0.668693 -0.10128,0.668693 -0.14108,1.265039 -0.14159,1.265036 0.59169,0.22583 0.59118,0.22634 0.50436,0.55966 0.50385,0.55914 h 0.31626 0.31677 l 1.24385,0.66145 1.24386,0.66146 0.58136,0.002 0.58136,0.003 0.032,1.71514 0.0315,1.71514 0.26871,0.33332 0.2682,0.33279 -0.13797,3.24115 -0.13798,3.24115 h -0.29714 -0.29714 l -0.33641,-0.53847 -0.33641,-0.53899 -0.65319,-0.24856 -0.6532,-0.24805 v -0.5209 -0.5209 l -0.62735,-0.72967 -0.62787,-0.73019 -1.11466,0.36794 -1.11414,0.36794 -0.50333,-0.3142 -0.50333,-0.3147 h -2.9223 -2.921785 l 0.1788,-4.29948 0.178801,-4.29948 0.358634,-0.52142 0.358118,-0.52193 v -2.190047 z m 44.03607,1.082104 c 0.39146,0.02414 0.47223,0.227725 0.63924,0.921391 0.18952,0.787171 0.41697,1.049113 1.13843,1.309998 0.49595,0.179338 0.90176,0.424742 0.90176,0.545707 0,0.51863 -0.76524,1.96303 -1.28623,2.42724 -0.78026,0.69521 -0.71354,1.03983 0.36018,1.8588 0.50933,0.38848 4.891175,5.08364 4.891175,4.94285 l -1.03973,4.855 c 0.0899,0.14552 -4.422855,0.93586 -4.674645,0.93586 -0.25179,0 -0.66695,0.18944 -0.92243,0.42065 -0.43492,0.39359 -1.51237,0.7573 -3.2153,1.08624 -0.61834,0.11943 -0.72761,0.0521 -0.72761,-0.44959 0,-0.33594 0.45607,-1.04622 1.05834,-1.64848 1.06895,-1.06896 1.22101,-1.2864 0.85989,-1.22938 -1.21084,0.19119 -1.52835,-0.75819 -0.58808,-1.75906 0.3264,-0.34744 0.47019,-0.74545 0.36639,-1.01596 -0.26047,-0.67877 -0.85728,-0.0419 -1.04645,1.11672 -0.0867,0.53109 -0.39872,1.64126 -0.6935,2.46755 -0.51178,1.43458 -0.58582,1.51113 -1.63556,1.69137 -3.09435,0.53129 -5.20019,-0.37949 -5.20019,-2.24895 0,-1.05599 0.64533,-1.96818 1.60817,-2.27377 0.49402,-0.1568 0.54607,-0.31378 0.40256,-1.21129 -0.0905,-0.5661 2.01753,-3.82057 2.55178,-4.454 -0.006,-7.4e-4 -0.0124,-0.001 -0.0186,-0.002 l 0.0677,-0.0537 c -0.0145,0.0154 -0.0307,0.034 -0.0491,0.0558 6.27736,0.76056 0.73286,-4.44409 4.04988,-7.896155 0.3236,-0.207899 1.19085,-0.320833 1.6924,-0.368453 0.21432,-0.02035 0.37904,-0.03234 0.50953,-0.02429 z m 20.450944,2.307353 h 0.34054 0.34107 l 0.40669,0.580843 0.4067,0.58084 -0.16537,1.03353 -0.16536,1.03405 0.34106,0.21032 0.34055,0.21084 0.68988,-0.24029 0.68936,-0.23978 1.98438,-0.34055 1.98437,-0.34003 1.10381,0.19327 1.10433,0.19275 1.07848,0.71417 1.07901,0.71365 0.003,1.08934 0.003,1.08934 0.66249,1.1591 0.66249,1.1591 -0.69815,1.75132 -0.69866,1.75131 -0.29817,0.19431 -0.29818,0.19482 -0.59531,0.004 -0.59531,0.004 -0.045,0.46302 -0.0455,0.46302 -0.0367,0.39687 -0.0372,0.39688 -0.85008,1.32291 -0.85059,1.32292 0.15502,1.12448 0.15503,1.12448 h -1.04231 -1.0418 l -0.32142,-0.38757 -0.32195,-0.38758 0.18604,-1.10019 0.18552,-1.10071 -0.35916,-0.22737 -0.35966,-0.2279 h -1.19063 -1.19062 l -0.38086,0.24082 -0.38137,0.24133 -0.41238,0.87229 -0.41289,0.8723 -1.16996,0.19947 -1.16995,0.19947 -1.32964,-0.0791 -1.32963,-0.0796 -0.1757,-0.6568 -0.1757,-0.65681 -0.98289,-1.36788 -0.98237,-1.36787 0.19327,-0.60203 0.19379,-0.60203 0.0336,-1.27434 0.0331,-1.27486 0.96118,-0.84181 0.96119,-0.84233 0.30024,-0.60254 0.30024,-0.60255 0.25166,0.15503 0.25115,0.15555 v -0.29605 -0.29559 l 0.25786,0.15916 0.25787,0.15968 0.56482,-1.20251 0.56534,-1.20199 h 0.19896 0.19947 l -0.06,-2.18281 -0.0599,-2.18282 0.40152,-0.46302 z m 76.61186,0.221175 0.817,1.146188 0.81649,1.14618 0.98134,1.25677 0.98133,1.25677 h 0.47646 0.47645 l 0.15917,0.41445 0.15916,0.41496 -0.29972,0.29972 -0.29973,0.29972 v 0.56069 0.56069 l 0.85267,0.37879 0.85266,0.37827 0.15089,0.66146 0.15038,0.66146 0.69401,0.33434 0.69454,0.33435 -0.27079,0.9803 -0.27078,0.97979 -0.35399,0.27337 -0.35398,0.27285 -0.16381,0.68264 -0.16434,0.68213 1.73737,1.7632 1.73684,1.76269 v 0.31522 0.31575 l -0.55294,1.14153 -0.55242,1.14205 h -0.34261 -0.3421 l -0.15916,-0.59532 -0.15968,-0.59531 -0.004,-0.83147 -0.004,-0.83148 -0.3545,-0.13642 -0.35502,-0.13591 -0.37259,0.23306 -0.3731,0.23254 -0.13229,-0.85266 -0.13229,-0.85266 -0.63717,-0.0899 -0.63769,-0.0904 -0.23875,0.42633 -0.23874,0.42685 -0.24908,-0.15451 -0.24908,-0.154 0.15451,-0.6165 0.15451,-0.61598 -0.27492,-0.17002 -0.27543,-0.17053 -0.47387,0.29972 -0.47388,0.29921 -0.4532,0.89194 -0.4532,0.89193 0.47077,0.339 0.47077,0.339 0.17674,0.47439 0.17725,0.47439 0.51418,-0.27492 0.51366,-0.27492 0.416,0.15968 0.41599,0.15968 v 0.45578 0.45631 l -0.61857,0.33124 -0.61856,0.33073 -1.16737,-0.32246 -1.16737,-0.32246 -1.7198,-0.10697 -1.71979,-0.10645 -1.32291,-0.0558 -1.32292,-0.0553 -0.37724,-0.24288 -0.37724,-0.24288 -2.1363,-0.10852 -2.1363,-0.10801 -0.39688,-0.50177 -0.39687,-0.50178 -0.79375,-0.27544 -0.79375,-0.27595 -0.63872,-0.93586 -0.63924,-0.93638 -0.48524,-0.25941 -0.48576,-0.25993 v -0.94207 -0.94206 l -0.44545,-0.75447 -0.44545,-0.75396 0.29662,-0.96635 0.29662,-0.96635 -0.41496,-0.86971 -0.41445,-0.86972 0.18294,-1.2206 0.18293,-1.22111 h 0.37156 0.37207 l 0.90692,0.43253 0.90692,0.43253 0.75551,-0.21135 0.75551,-0.21136 0.26458,0.0703 0.26459,0.0698 1.77301,0.25011 1.77302,0.2496 1.05472,-0.53795 1.0542,-0.53744 0.80873,0.16175 0.80926,0.16175 0.52503,-1.15755 0.52503,-1.15704 0.006,-1.22731 0.006,-1.22732 0.94464,-0.17725 0.94516,-0.17725 0.36071,-0.13849 z m 23.6647,0.986498 v 5.2e-4 c 0.33101,0.0174 0.72949,0.1403 1.19838,0.36794 0.99086,0.48105 2.25126,0.59599 2.93987,0.2682 0.51973,-0.2474 2.01538,0.98606 2.01538,1.66191 0,0.26197 -0.34481,0.77346 -0.76636,1.13637 -0.42156,0.3629 -0.76636,0.8354 -0.76636,1.05006 0,0.59222 -0.72752,1.21181 -1.42317,1.21181 -0.8442,0 -0.78086,0.22159 0.40566,1.41801 1.00356,1.01195 1.18117,1.55815 1.06867,3.28662 -0.0234,0.35941 0.082,1.04397 0.23409,1.52083 0.15219,0.47687 0.2145,0.93042 0.1385,1.00821 l -0.004,10e-4 c 0.14042,0.30195 -0.31359,1.83687 -0.49299,2.6262 -0.25506,1.12227 -0.15317,1.34187 -0.47594,1.66243 -0.56485,0.56101 -1.1629,0.50828 -1.20044,0.47387 l -5.2e-4,-5.2e-4 -5.2e-4,-5.1e-4 -5.1e-4,-5.2e-4 v -5.2e-4 -5.1e-4 -5.2e-4 -5.2e-4 -5.1e-4 l 5.1e-4,-5.2e-4 v -5.2e-4 l 5.2e-4,-5.1e-4 c 0.003,-0.002 0.01,-0.004 0.0207,-0.006 -0.6657,0.0442 -1.45541,0.97104 -1.74511,2.06137 -0.11595,0.4364 -0.40024,0.73745 -0.74466,0.78806 -0.30645,0.045 -0.99153,0.49153 -1.52239,0.99219 -0.53086,0.50067 -1.13515,0.91002 -1.34307,0.91002 -0.25158,0 -0.37827,0.2936 -0.37827,0.87695 0,0.61499 -0.22142,1.08868 -0.74207,1.5875 -0.91484,0.87647 -0.97258,0.87672 -1.56063,0.0119 -0.26152,-0.38455 -0.80296,-1.00695 -1.20303,-1.38234 -0.81239,-0.76225 -0.92509,-1.4634 -0.33073,-2.05776 0.21828,-0.21829 0.39688,-0.72471 0.39688,-1.12551 0,-0.42619 0.26285,-0.97511 0.63252,-1.3224 0.34765,-0.3266 0.69893,-0.92923 0.78083,-1.33894 0.10547,-0.52734 0.38461,-0.82676 0.95549,-1.02577 0.49328,-0.17196 0.80829,-0.46645 0.81029,-0.7581 0.002,-0.26223 0.21551,-0.84728 0.35657,-1.06556 l 0.27957,-0.0708 c 0.3847,-1.05073 2.03446,-3.27433 2.28358,-3.71916 l -0.21549,-1.16582 c -0.50293,-0.42703 -0.70259,-1.08404 -0.16072,-2.05 0.41993,-0.7486 0.41854,-0.81012 -0.0305,-1.31775 -0.37827,-0.42767 -0.43713,-0.76509 -0.29818,-1.71307 0.0952,-0.64924 0.28154,-1.24902 0.41393,-1.33274 0.40498,-0.25607 0.26952,-0.85773 -0.31936,-1.41903 -0.46529,-0.4435 -0.51841,-0.65506 -0.31419,-1.25161 0.19145,-0.55923 0.55574,-0.82325 1.10742,-0.79426 z m -60.45315,1.96578 0.42013,0.16123 0.42064,0.16123 v 0.36225 0.36225 l 0.90744,0.82579 0.90744,0.82579 0.41341,1.03301 0.41289,1.0325 0.33332,0.0305 0.33279,0.0305 0.46302,-0.047 0.46302,-0.0475 v 0.41392 0.41342 l 0.52917,0.52916 0.52917,0.52917 h 0.971 0.97151 l 0.4992,0.45165 0.49971,0.45217 0.43098,-0.27233 0.4315,-0.27182 0.80977,0.92294 0.81029,0.92294 0.0677,1.34462 0.0682,1.34462 0.006,0.75758 0.006,0.75809 -0.70848,0.9617 -0.70797,0.96221 -0.92914,0.81236 -0.92914,0.81235 0.0233,0.82269 0.0238,0.82269 0.44545,0.68006 0.44545,0.68006 h 0.2341 0.23409 v 0.64802 0.64803 l -0.9002,0.68678 -0.90021,0.68678 -0.88573,-0.54002 -0.88573,-0.54002 -0.49093,-0.001 -0.49144,-0.001 -0.493,0.62683 -0.49299,0.62684 -0.79478,0.15865 -0.79479,0.15916 -0.39015,0.93431 -0.39068,0.93379 h -0.65215 -0.65216 l -0.74983,-0.82062 -0.74982,-0.82062 -0.85163,-0.37 -0.85111,-0.37001 h -0.78135 -0.78134 l -0.17829,-0.81183 -0.17828,-0.81132 -0.37207,-0.14315 -0.37156,-0.14262 v -0.48525 -0.48524 l 0.28939,-0.1788 0.28939,-0.1788 -0.81545,-0.74517 -0.81546,-0.74518 0.16072,-0.80563 0.16123,-0.80615 -0.65423,-0.24857 -0.65474,-0.24908 -0.16536,-1.20561 -0.16537,-1.20613 0.64854,-0.64802 0.64854,-0.64854 -0.28319,-0.81287 -0.2837,-0.81287 h -0.61598 -0.6165 l -0.51212,0.65112 -0.51211,0.65113 -0.49919,-0.98186 -0.4992,-0.98185 -0.1819,-0.13798 -0.1819,-0.13745 -0.28112,-0.73949 -0.28112,-0.73949 v -0.88987 -0.88987 l 0.35192,-0.35192 0.35191,-0.35191 -0.10955,-0.32867 -0.10955,-0.32814 h 0.2868 0.2868 v -0.39326 -0.39326 l 0.93225,-0.39015 0.93276,-0.38964 0.91002,-0.17054 0.91002,-0.17053 0.31781,-0.38292 0.31781,-0.38292 1.34514,0.16588 1.34565,0.16536 0.58395,-0.5488 0.58446,-0.5488 h 0.23978 0.24029 l 0.67334,-0.5302 z m -66.413514,2.70112 c 3.6e-4,-3e-5 7e-4,0 10e-4,0 l -0.0641,0.0506 c 0.0301,-0.0319 0.0518,-0.0496 0.0631,-0.0506 z m 81.286504,1.76062 0.80874,0.68006 0.80873,0.68058 h 0.45579 0.4563 l 0.31006,-0.31006 0.31006,-0.31006 0.53072,1.16996 0.53071,1.16995 0.006,0.34003 0.006,0.34003 1.15238,0.49403 1.15239,0.49403 0.17053,0.44441 0.17053,0.44442 v 0.72967 0.72968 l 1.38906,1.49965 1.38907,1.49965 0.34261,-0.002 0.34313,-0.002 0.69867,0.69866 0.69866,0.69867 2.2593,0.11007 2.25981,0.11007 0.17518,0.28422 0.1757,0.2837 1.21801,-0.18242 1.21853,-0.18293 0.75706,0.44752 0.75706,0.44751 0.45889,-0.25683 0.45837,-0.25631 1.83193,0.42013 1.83245,0.42064 0.52193,0.8599 0.52141,0.8599 h 0.2589 0.2589 l 0.61805,0.90898 0.61753,0.90951 -0.0553,1.80247 -0.0553,1.80299 0.41392,0.46302 0.41445,0.46303 -0.46302,0.51159 -0.46251,0.51108 0.17209,0.78497 0.1726,0.78496 -0.41962,1.44281 -0.41909,1.44229 -0.58808,0.53536 -0.58808,0.53537 -0.57361,0.29559 -0.57412,0.29559 -0.17053,0.777205 -0.17054,0.777227 -0.7059,-0.0475 -0.70538,-0.0475 -0.0341,0.572568 -0.0341,0.57206 -0.56172,0.71417 -0.56121,0.71468 -0.46767,-0.82166 -0.46767,-0.82165 -0.3173,-0.002 -0.31729,-0.002 -0.71572,-0.938958 -0.71623,-0.938452 -0.51884,-0.27801 -0.51883,-0.27751 -1.23506,1.216465 -1.23507,1.216465 h -0.26768 -0.26821 l -0.58446,-0.727608 -0.58446,-0.727607 -0.88108,-1.190615 -0.88108,-1.19063 -0.37414,0.0367 -0.37414,0.0367 -0.39687,0.16226 -0.39688,0.16227 -0.45062,-0.79427 -0.45061,-0.79427 -0.67386,-0.30695 -0.67335,-0.30696 -1.0852,0.35812 -1.08469,0.35811 -0.43667,-0.54622 -0.43666,-0.54622 -1.85209,-0.59531 -1.85208,-0.59583 -0.79375,-0.40927 -0.79375,-0.4098 -0.8599,-0.40669 -0.85989,-0.40721 V 91.5725 91.28156 l 0.3886,-0.51366 0.38861,-0.51367 0.008,-1.62522 0.008,-1.62522 -0.41858,-0.16072 -0.41858,-0.16071 h -0.62166 -0.62116 l -0.0847,-0.59531 -0.0842,-0.59532 -0.7183,-0.0827 -0.7183,-0.0827 -0.67076,-0.79788 -0.67076,-0.79737 v -0.75396 -0.75447 l 0.68006,-0.53537 0.68058,-0.53485 0.92501,-1.2113 0.925,-1.21129 0.14315,-0.88212 0.14314,-0.88263 -0.28267,-0.5271 -0.28215,-0.52762 0.90382,-2.07842 0.9033,-2.07843 0.55914,-0.20671 0.55914,-0.2067 -0.16175,-0.50901 -0.16123,-0.5085 0.28061,-0.17363 z m -115.290624,3.28042 0.66352,0.16691 0.66404,0.1664 -0.44028,0.67231 -0.44028,0.6718 0.14417,0.37517 0.14366,0.37569 0.73639,0.004 0.73588,0.004 0.59531,0.15968 0.59531,0.15916 v 0.39171 0.39119 l -0.50384,0.70745 -0.50385,0.70745 -0.18293,1.2206 -0.18345,1.22008 0.31522,0.19482 0.31523,0.19482 0.6072,-0.32505 0.60719,-0.32504 -0.13074,-0.9741 -0.13074,-0.97359 0.42478,-0.35243 0.42426,-0.35192 v 0.41651 0.41703 l 0.30696,0.67386 0.30696,0.67386 h 0.33538 0.33486 l 0.54467,-0.69246 0.54519,-0.69246 -0.1695,-0.27441 -0.17001,-0.2744 0.31315,0.19327 0.31265,0.19327 0.45578,-0.55707 0.45579,-0.55759 0.97565,-0.15606 0.97617,-0.15658 0.71313,0.5612 0.71365,0.56121 h 0.74053 0.74104 l 0.68213,-0.25941 0.68161,-0.2589 0.30696,-0.67335 0.30644,-0.67282 0.64492,-0.16227 0.64441,-0.16175 0.23202,0.36691 0.23203,0.36638 0.004,1.25471 0.004,1.2547 -0.7798,0.69453 -0.77928,0.69453 -0.1788,0.82889 -0.17828,0.82889 -0.40566,0.79375 -0.40515,0.79375 -1.08417,1.28623 -1.08365,1.28674 -0.004,1.25677 -0.004,1.25677 -0.38292,0.46096 -0.38241,0.46147 -1.52601,1.03611 -1.52548,1.03611 -0.28319,0.52917 -0.28319,0.52917 0.27699,1.4981 0.27698,1.4981 v 0.62476 0.62529 l -0.64957,0.64905 -0.64957,0.64958 h -0.53175 -0.53175 l -0.27389,-0.5116 -0.27388,-0.51211 v -1.72134 -1.72186 l -0.22118,-0.13643 -0.22066,-0.13642 -0.96376,0.29558 -0.96377,0.29611 -1.09709,-0.4315 -1.09761,-0.43098 -0.54932,0.29404 -0.54932,0.29404 -1.750277,0.0419 -1.749764,0.0419 -1.347205,0.82889 -1.346688,0.82837 -0.411861,-0.45475 -0.411344,-0.45475 -0.407211,-0.9741 -0.406693,-0.97411 V 92.06964 91.2392 l 0.661458,-0.51986 0.661459,-0.52038 V 89.43673 88.6745 l 0.315743,-0.69349 0.316259,-0.69402 0.742074,-0.38395 0.74259,-0.38344 v -0.63304 -0.63304 l 0.134876,-0.35243 0.134875,-0.35243 1.254187,0.0832 1.254187,0.0837 0.529165,-0.39223 0.52917,-0.39222 0.13229,-5.24413 0.13229,-5.24464 0.48369,-0.0925 z m -1.32395,0.26458 v 5.11649 5.11648 l -0.52245,0.47336 -0.522969,0.47284 -1.178739,-0.13281 -1.17874,-0.13281 -0.28267,0.28267 -0.283187,0.28319 v 0.74672 0.74621 l -0.682645,0.31109 -0.682646,0.31109 -0.507979,0.99581 -0.50798,0.99529 v 0.70021 0.70022 l -0.661458,0.52038 -0.661458,0.52038 0.165881,1.0387 0.166398,1.03921 h -0.82734 -0.800984 l 0.410311,0.44803 0.534851,-0.14004 0.534334,-0.13953 0.790133,1.14825 0.790132,1.14826 v 0.82527 0.82527 l -0.380338,0.73536 -0.380339,0.735345 0.272335,1.072285 0.271818,1.07178 1.100708,0.15605 1.100191,0.15556 0.264584,-0.43925 0.264583,-0.43926 0.583427,-0.61081 0.58291,-0.610818 h 0.806152 0.805634 v 1.202508 1.20303 l -0.792198,0.45062 -0.7922,0.45114 -0.0016,0.38396 -0.0016,0.38446 0.836641,0.86352 0.837157,0.863 -1.10174,1.60507 -1.101225,1.60506 v 0.50696 0.50694 l 1.32085,0.0801 1.320845,0.0801 -1.188554,1.25574 -1.188557,1.25573 v 0.26562 0.26458 l 0.476456,-0.4253 0.587045,-0.52504 0.9958,-1.3229 0.99633,-1.32292 1.69705,-0.88573 1.69654,-0.88522 1.29759,0.82268 1.2976,0.82269 0.91932,0.25373 0.91881,0.25374 0.57619,-0.14469 0.57671,-0.1447 1.54047,0.28525 1.541,0.28473 1.20612,1.28313 1.20613,1.28262 1.05368,0.70125 1.05369,0.70072 h 1.79885 1.79938 l 0.16019,0.41754 0.1602,0.41756 -0.52297,0.70693 -0.52244,0.70694 -1.1126,0.62166 -1.11259,0.62116 -1.53221,0.13901 -1.5322,0.139 -0.58033,-0.31057 -0.58084,-0.31058 -0.41807,-1.04489 -0.41806,-1.04542 h -0.32711 -0.32711 l -0.48214,0.53279 -0.48214,0.5333 -0.8816,-0.16588 -0.88212,-0.16537 v 1.05988 1.05937 l -0.41858,0.16072 -0.41806,0.16019 h -0.55294 -0.55294 l -0.47335,-0.42788 -0.47284,-0.4284 -0.66456,0.16692 -0.66456,0.1664 -0.29972,0.55965 -0.29921,0.55966 0.27544,0.6041 0.27491,0.60409 -0.19947,0.75138 -0.19999,0.75137 -0.51108,0.0568 -0.51159,0.0563 -1.98438,-0.98496 -1.98437,-0.98495 -1.058336,-0.6935 -1.058333,-0.6935 -0.595829,-0.64492 -0.595829,-0.64492 0.679545,-0.59066 0.679545,-0.59066 -0.1726,-1.38028 -0.172599,-1.38028 0.110071,-0.0982 -0.329696,-0.0119 -0.330729,-0.0119 -0.954464,-0.50437 -0.95498,-0.50436 -0.28267,-0.74052 -0.283187,-0.74052 -0.168982,-1.26556 -0.168982,-1.26556 -0.511596,-0.31936 -0.511597,-0.31987 v -0.95343 -0.95395 l -0.463021,-0.41031 -0.463021,-0.41083 -1.785937,-0.8046 -1.785938,-0.80409 v -1.48518 -1.484668 l -0.39119,-0.757067 -0.391191,-0.756535 -0.241846,-0.0899 -0.241845,-0.0899 -1.35754,-2.85616 -1.357023,-2.85667 -0.230994,0.14314 -0.230994,0.14263 0.195337,0.86145 0.195854,0.86144 0.967383,2.41381 0.967383,2.414315 v 0.859385 0.85938 l -0.371037,-0.30799 -0.37052,-0.30747 -0.165365,-0.657848 -0.164848,-0.657847 -0.817004,-1.327555 -0.816488,-1.32706 -0.499711,-1.31413 -0.499194,-1.31413 -0.0093,-1.25419 -0.0093,-1.25367 -0.378271,-0.66145 -0.378272,-0.66146 -0.0093,-0.20464 -0.0093,-0.20464 0.595312,0.37362 0.595313,0.3731 0.95343,0.30179 0.952913,0.3018 0.614433,0.6537 0.613916,0.65423 h 1.721342 1.720825 l 0.876949,0.95704 0.439767,0.48008 v -0.17157 -0.20102 l -0.692981,-0.74724 -0.692464,-0.74724 -1.506885,0.17466 -1.506885,0.17519 -1.132747,-0.9462 -1.132748,-0.94671 h -0.406693 -0.406694 l -0.866613,-0.53537 -0.866614,-0.53588 -0.567407,-1.11776 -0.567408,-1.11828 -0.153479,-1.87431 -0.153479,-1.87482 0.342615,-1.03559 0.343132,-1.03612 0.05064,-2.48615 0.05116,-2.48615 0.728121,-0.38137 0.727604,-0.38138 -0.147278,-0.73742 -0.147794,-0.73742 2.037602,-0.15503 2.037085,-0.15555 6.81302,-0.008 z m -8.995838,20.07526 v 0.0294 h 0.02687 z m 6.525183,19.20038 h 10e-4 v -0.001 z m 57.514829,-36.23448 1.12551,1.28985 1.12603,1.28932 0.19999,0.92604 0.19999,0.92605 -0.0724,1.32291 -0.0724,1.32292 -0.41238,0.46302 -0.41186,0.46302 0.4377,0.48421 0.4377,0.48369 v 1.01648 1.01699 l 0.4098,0.45217 0.40927,0.45268 -0.43718,0.43719 -0.4377,0.43718 -0.56741,-0.17674 -0.5674,-0.17725 -0.19379,-0.29507 -0.1943,-0.29507 -0.11989,-0.26458 -0.11989,-0.26459 -0.43047,0.52917 -0.43046,0.52917 0.16019,0.79375 0.15969,0.79375 0.046,0.4439 0.046,0.44338 0.27388,-0.15813 0.27389,-0.15865 -0.47026,0.53796 -0.47077,0.53743 0.30231,0.76481 0.30231,0.7643 -0.0222,0.85731 -0.0217,0.85783 -1.0666,1.34875 -1.0666,1.34927 v 0.26924 0.26923 l -0.3545,-0.13591 -0.3545,-0.13642 -0.76998,0.896065 -0.769979,0.895545 -0.52915,-0.002 -0.52866,-0.003 -0.52917,-0.305398 -0.52917,-0.30541 -0.32969,-0.328147 -0.3297,-0.327625 -2.393645,-0.18759 -2.39365,-0.18707 -0.39223,-0.75861 -0.39222,-0.75912 h -0.25782 -0.25786 v -0.54209 -0.5426 l 0.40824,-0.7891 0.40824,-0.7891 0.21084,0.13022 0.21084,0.13023 -0.0615,-1.90738 -0.062,-1.90789 -0.047,-0.39688 -0.0465,-0.39687 -0.20308,0.51935 -0.20309,0.51934 -0.46044,-0.70228 -0.45992,-0.70228 0.0863,-0.58963 0.0868,-0.58963 0.87333,-0.48627 0.87333,-0.48628 0.51573,0.27595 0.51574,0.27596 v 0.19895 0.19844 h 0.52916 0.52917 l 0.004,-0.27389 0.004,-0.2744 0.25683,0.39688 0.25632,0.39687 0.004,-0.33073 0.004,-0.33073 h 0.652145 0.65216 l 0.27388,-0.51159 0.27389,-0.5116 v -1.03885 -1.03869 l -0.69184,-1.02888 -0.69195,-1.0294 -0.498675,-0.47335 -0.49867,-0.47336 v -0.52503 -0.52555 l 0.67903,-0.25787 0.678505,-0.25838 0.31367,0.009 0.31316,0.008 -0.51315,0.38861 -0.51366,0.38809 h 0.19741 0.1974 l 1.18701,-0.54054 1.18701,-0.54105 0.2961,-0.64957 0.29611,-0.65009 h 1.16168 1.162199 l 0.2589,-0.74363 0.25942,-0.74362 0.96118,-0.34778 z m 17.20257,0.0661 h 0.28422 0.28473 l 0.78703,0.9865 0.78704,0.98651 0.18707,1.9575 0.18706,1.9575 0.3111,0.75138 0.31109,0.75137 0.51986,0.16537 0.51987,0.16485 -0.15141,0.39481 -0.15142,0.39429 v 0.19327 0.19275 l -0.46715,0.51315 -0.46664,0.51263 -0.98857,1.21801 -0.98805,1.21801 v 0.58343 0.58394 l -0.26045,-0.16123 -0.26097,-0.16123 0.16175,0.80719 0.16123,0.80667 h -0.2682 -0.2682 l 0.0367,0.46302 0.0367,0.46302 -0.66146,0.004 -0.66146,0.004 -0.0806,0.55966 -0.0801,0.56017 0.6444,0.74879 0.64441,0.74931 -0.29662,0.65009 -0.29611,0.6506 0.32763,0.10904 0.32763,0.10904 v 0.37517 0.37465 l -0.59531,-0.0186 -0.59532,-0.0186 0.52917,-0.22737 0.52917,-0.22738 -0.72761,-0.0186 -0.7276,-0.0186 v 0.39688 0.39687 h -0.37879 -0.37879 l -0.54725,-0.76843 -0.54726,-0.76843 v -0.94206 -0.94206 l -0.76429,-1.20561 -0.76481,-1.20561 -0.17725,-1.18339 -0.17777,-1.18391 -0.86868,-0.66249 -0.86868,-0.66301 h -0.54209 -0.54208 l -0.15606,0.40669 -0.15607,0.40618 1.18598,1.45624 1.18597,1.45573 v 0.69246 0.69195 l -0.48369,-0.4377 -0.48369,-0.43822 h -0.41393 -0.41393 l -0.14056,0.36691 -0.14056,0.36638 0.37207,0.53124 0.37156,0.53123 -0.34985,0.29042 -0.35037,0.29094 -0.21652,-0.19637 -0.21653,-0.19637 0.1664,0.29249 0.16691,0.29249 -0.63407,0.59531 -0.63355,0.59531 -0.28422,-0.1757 -0.28422,-0.1757 0.004,-0.31523 0.004,-0.31522 0.22221,0.35036 0.22169,0.35037 0.43563,-0.43511 0.43512,-0.43564 v -0.14572 -0.14573 l -0.36329,0.30179 -0.36328,0.30127 -0.43047,-0.16536 -0.43046,-0.16485 v 0.293 0.29249 h -0.52917 -0.52917 v 0.24288 0.24237 l 0.33073,0.12195 0.33073,0.12144 -0.72967,0.1943 -0.72915,0.19379 -0.65991,-0.43201 -0.65939,-0.43202 v -0.24546 -0.24495 l 1.52135,-0.0796 1.52136,-0.0796 0.0827,-1.14567 0.0822,-1.14618 -0.4718,-0.7059 -0.47232,-0.70642 0.0656,-0.21807 0.0651,-0.21807 -0.27079,0.16794 -0.2713,0.16744 v -0.28571 -0.28629 l -0.68368,-0.31109 -0.68368,-0.31161 0.10956,-0.74724 0.10955,-0.74776 -0.88108,-0.54415 -0.88109,-0.54467 v -1.11621 -1.11621 l -0.31729,-0.3173 -0.31781,-0.31781 0.31781,-0.31729 0.31729,-0.31729 V 82.82516 81.7198 l 0.39946,-0.33177 0.39946,-0.33124 1.05989,0.14211 1.0604,0.14211 0.72295,-0.23254 0.72347,-0.23203 0.7276,-0.14521 0.72761,-0.1447 v -0.6506 -0.65009 l 0.63975,-0.4191 0.63976,-0.41961 1.14618,0.0827 1.14618,0.0822 v 1.5875 1.5875 l 1.55753,0.0806 1.55701,0.0806 -0.13384,-1.19114 -0.13436,-1.19114 0.52297,-0.87385 0.52296,-0.87385 0.54725,-0.59531 z m 40.02443,8.90075 0.447,0.17157 0.447,0.17156 v 0.53744 0.53743 h 0.80047 0.80046 l 0.25839,0.67851 0.25786,0.67903 -0.002,0.84233 -0.002,0.84284 -0.52555,0.79375 -0.52555,0.79375 -0.002,0.21187 -0.002,0.21188 0.9617,0.40204 0.9617,0.40153 0.70693,0.52296 0.70694,0.52245 0.64647,0.061 0.64647,0.0605 1.32292,0.50074 1.32292,0.50075 0.56792,0.50539 0.56792,0.5054 1.19166,-0.1788 1.19218,-0.1788 0.52658,0.16691 0.5271,0.16744 0.31264,0.75499 0.31265,0.75499 -0.65888,1.28674 -0.65887,1.28675 -0.88212,1.19062 -0.88212,1.19063 h -0.39687 -0.39688 l 0.016,0.66146 0.0155,0.66145 0.2005,0.59532 0.2005,0.59531 h -0.79271 -0.79272 l -0.41548,0.41599 -0.41599,0.41548 -0.0181,0.57671 -0.0181,0.57619 -0.0997,0.75861 -0.0992,0.75861 -0.48834,0.34159 -0.48783,0.34209 -0.0667,1.01648 -0.0662,1.01596 -0.51883,1.74821 -0.51831,1.74821 v 1.1095 1.10897 l -0.41445,0.80099 -0.41393,0.8015 -0.0656,0.57464 -0.0651,0.57464 -0.35656,0.72761 -0.35657,0.7276 h -0.31058 -0.30954 l -0.17622,-0.17673 -0.17673,-0.17622 v -0.53433 -0.53382 l -0.5271,-0.56121 -0.5271,-0.5612 -0.6444,-1.8371 -0.64493,-1.8371 0.28991,-0.10283 0.29042,-0.10336 -0.87953,-0.71778 -0.87953,-0.71779 0.0232,-0.80822 0.0227,-0.80873 -0.47077,-0.42582 -0.47078,-0.42633 0.11111,-2.04535 0.1111,-2.04587 0.28422,-0.74259 0.28371,-0.74207 -0.27182,-0.27182 -0.27182,-0.27234 -0.56017,0.60152 -0.56018,0.60099 v 0.26097 0.26045 l -0.6227,-0.58498 -0.6227,-0.58497 0.12454,-0.65164 0.12454,-0.65164 h -0.51935 -0.51883 l -0.4377,-0.48421 -0.43821,-0.48369 v -0.28991 -0.28939 l -0.81391,-0.61546 -0.8139,-0.61547 -0.6413,-0.63407 -0.64131,-0.634068 V 98.68598 97.53773 l -0.78135,-1.52549 -0.78083,-1.52497 -0.0775,-1.98128 -0.077,-1.98076 0.46664,-0.0899 0.46612,-0.0899 0.37879,-0.90537 0.37827,-0.90588 h 0.56276 0.56327 l 0.79375,-0.79375 0.79375,-0.79375 h 0.34106 0.34055 l 0.67283,0.52916 0.67283,0.52917 h 0.40255 0.40205 l 0.90485,-0.8599 0.90434,-0.85989 0.12247,-0.37828 z m -29.77545,2.18281 0.709,0.80771 0.709,0.80821 0.80099,-0.006 0.80098,-0.006 0.98444,-0.22841 0.98443,-0.22841 0.30438,0.36691 0.30489,0.36742 h 0.88108 0.8816 l 0.74001,-0.3204 0.74001,-0.31987 0.63562,-0.4775 0.63562,-0.47697 0.7183,0.7183 0.7183,0.71831 1.37356,0.30902 1.37356,0.30954 0.38137,-0.38137 0.38137,-0.38137 v -0.48162 -0.48162 l 0.6594,-0.16536 0.65887,-0.16537 0.86248,0.3607 0.86196,0.3607 0.96067,0.96119 0.96066,0.96169 0.18294,2.05569 0.18345,2.05569 0.77101,1.5043 0.77101,1.5043 -0.15296,0.76636 -0.15348,0.766875 0.53227,0.992715 0.53175,0.9927 -0.57361,0.69712 -0.57412,0.69711 -0.75551,0.73536 -0.75551,0.73587 h -0.56999 -0.56999 l -0.31471,-0.50436 -0.31523,-0.50437 -0.92449,0.20878 -0.92501,0.20825 -0.60978,-0.41031 -0.60978,-0.41031 -0.0744,-0.0512 -0.0739,-0.0517 -0.24701,-1.51929 -0.24753,-1.518768 -0.32608,-0.393267 -0.32608,-0.392735 -0.27956,0.381885 -0.27957,0.382407 -0.59428,0.18862 -0.59428,0.18862 v 0.610298 0.61082 l 0.15451,0.77256 0.15451,0.77204 1.3007,1.42989 1.30069,1.42989 v 0.21187 0.21239 h 0.73484 0.73484 l 0.59066,-0.41393 0.59118,-0.41392 0.51263,0.16278 0.51315,0.16278 0.16846,0.53175 0.16899,0.53175 0.62528,0.28525 0.62529,0.28474 0.27802,0.79685 0.2775,0.79685 v 0.82424 0.82424 l -0.79944,1.63866 -0.79943,1.63866 -0.47491,0.3421 -0.47542,0.34158 -0.48421,0.8294 -0.48421,0.82993 -0.91002,0.43356 -0.9095,0.43357 -1.58337,1.05213 -1.58337,1.05162 h -1.65054 l -1.65055,-5.2e-4 -0.40462,-0.33073 -0.40411,-0.33073 -0.56999,-1.41903 -0.56999,-1.41852 0.15296,-0.60875 0.15244,-0.60823 -0.93534,-0.44442 -0.93586,-0.4439 -0.6351,-0.83612 -0.63511,-0.83561 -0.57206,-1.19063 -0.57257,-1.19062 -0.5917,-0.82424 -0.59169,-0.82372 -0.7276,-0.27751 -0.72761,-0.2775 v -0.44183 -0.44132 l -0.96687,-1.18029 -0.96738,-1.18029 0.86558,-0.89297 0.8661,-0.89297 0.0351,-2.968295 0.0351,-2.967775 -0.47956,-0.29507 -0.47956,-0.29456 -0.48885,0.59532 -0.48886,0.59531 h -0.81752 -0.81753 v -0.26458 -0.26459 h -1.40818 -1.40818 l -1.23765,-0.42168 -1.23765,-0.42219 v -0.98282 -0.98289 l -0.36484,-0.49919 -0.36535,-0.49919 0.39687,-1.20458 0.39688,-1.2051 0.41238,-0.87023 0.41238,-0.87023 0.40876,0.0786 0.40927,0.0791 0.29508,0.59118 0.29455,0.5917 0.11679,-0.11679 0.11679,-0.11679 0.81029,-0.14263 0.80977,-0.14263 1.16633,-0.50281 1.16634,-0.50229 1.00356,-0.17674 z m -23.35671,9.42217 h 0.91054 0.91054 v 0.36845 0.36897 l 0.33072,0.12144 0.33073,0.12144 0.33228,-0.11576 0.33228,-0.11575 -0.14934,-0.24185 -0.14986,-0.24236 h 0.24804 0.24753 l 0.32246,0.38861 0.32247,0.3886 0.17311,-0.0444 0.17312,-0.0439 0.58342,0.19896 0.58291,0.19844 0.67231,-0.44029 0.67232,-0.4408 0.90537,0.17002 0.90537,0.17001 v 1.204055 1.204075 l -0.86765,0.83819 -0.86765,0.83871 -0.72657,1.26245 -0.72605,1.26246 0.18345,0.97875 0.18397,0.97875 0.39791,1.19838 0.39842,1.19838 1.22267,1.25677 1.22214,1.25677 h 0.74673 0.74621 l 1.24798,0.63975 1.24799,0.63976 1.38906,1.29449 1.38906,1.2945 v 1.60506 1.60559 l -0.39687,0.32918 -0.39688,0.32918 v 1.52755 1.52704 l -1.95647,1.4981 -1.95595,1.49862 -0.0987,1.9513 -0.0982,1.9513 -0.20205,0.20206 -0.20206,0.20205 -1.02371,0.0258 -1.02371,0.0258 -0.3576,0.29559 -0.3576,0.29507 -0.99219,0.18552 -0.99218,0.18552 v -0.42633 -0.42633 h 0.26458 0.26458 v -0.47904 -0.47956 l -0.53123,-0.56999 -0.53072,-0.56999 -0.39842,0.15296 -0.39843,0.15296 -0.39377,-0.32659 -0.39326,-0.3266 v 0.19689 0.19689 l -0.44752,-0.36277 -0.44803,-0.36329 0.23409,0.39688 0.23409,0.39687 -0.45423,-0.36845 -0.45424,-0.36845 0.13385,-0.13385 0.13384,-0.13384 -0.4992,-0.43305 -0.49867,-0.43253 -1.42421,0.0248 -1.4242,0.0243 -0.32091,0.19844 -0.32091,0.19844 -0.26458,-0.1633 -0.26459,-0.16381 v 0.23823 0.23771 l -0.62063,0.28267 -0.62064,0.28267 -0.35346,-0.49093 -0.35399,-0.49041 -0.21084,0.13023 -0.21084,0.13022 -0.55138,-0.29507 -0.55191,-0.29507 -0.36793,0.3054 -0.36846,0.30593 -0.31729,-0.19585 -0.31678,-0.19586 0.17209,0.27905 0.1726,0.27906 h -0.918289 -0.91829 l -0.93224,-1.03198 -0.93225,-1.03198 h -0.25941 -0.2589 l -0.42582,-0.65009 -0.42581,-0.64957 0.17053,-0.27647 0.17053,-0.27595 h -0.324 -0.324525 l 0.166395,-0.1664 0.1664,-0.1664 -0.982365,-1.22215 -0.98185,-1.22266 -0.33073,-0.34985 -0.33073,-0.34985 0.004,-0.31213 0.004,-0.3116 0.25683,0.39687 0.25632,0.39688 0.004,-0.29869 0.004,-0.29818 -0.39584,-0.32866 -0.39584,-0.32814 0.0651,-1.55391 0.0651,-1.55392 0.24236,-0.002 0.24236,-0.002 -0.1695,-0.16898 -0.16898,-0.1695 0.43563,-0.73846 0.43615,-0.73794 -0.44287,-1.372 -0.44286,-1.3715 v -0.5271 -0.5271 l 0.41031,0.15762 0.41083,0.15761 -0.1447,-0.23409 -0.14469,-0.23358 0.34571,-0.13281 0.3452,-0.13229 0.32505,-1.08572 0.32556,-1.08624 h 0.21704 0.217555 l -0.121955,-0.63769 -0.12196,-0.6382 0.520385,-0.27854 0.52089,-0.27905 0.16692,0.16743 0.16743,0.16691 v -0.32452 -0.32402 l 0.26458,0.1633 0.26459,0.16382 0.0305,-0.61082 0.0305,-0.61133 -0.0331,-0.39688 -0.0331,-0.39687 0.51159,-1.32292 0.5116,-1.32291 1.10124,0.0739 1.10173,0.0734 0.862469,-0.533298 0.86248,-0.532787 0.13539,0.1359 0.13591,0.135407 0.96273,-1.065052 0.96222,-1.06557 h 0.2067 0.20723 l 0.38137,0.52916 0.38137,0.52917 h 0.32918 0.32918 l 0.29404,-0.54932 0.29404,-0.54984 0.36845,0.14108 0.36794,0.14159 0.15658,-0.25321 z m 68.80768,0.13125 h 0.35709 0.35708 l 0.4961,0.83923 0.49557,0.83922 0.91519,1.012862 0.91468,1.012858 0.43253,-0.005 0.43201,-0.005 1.17357,-1.181838 1.17409,-1.181332 0.5085,0.459405 0.5085,0.459407 0.53071,0.744658 0.53072,0.74466 -0.55914,0.59531 -0.55966,0.59531 v 0.68161 0.68161 l 1.05575,1.27796 1.05627,1.27796 0.41289,0.87023 0.41342,0.87075 -0.18707,0.30282 -0.18707,0.30231 0.30541,-0.18862 0.3054,-0.18862 v 0.28009 0.28009 l 0.51677,0.51624 0.51625,0.51677 -0.0863,0.47542 -0.0863,0.47594 -0.185,1.52446 -0.18501,1.52497 -0.77463,0.39997 -0.77411,0.40049 v 0.50953 0.50902 l -0.46095,0.25786 -0.46044,0.25787 -0.53175,-1.5012 -0.53123,-1.50172 -0.84285,-0.39687 -0.84336,-0.39688 -0.28525,-0.61598 -0.28525,-0.61599 -0.3266,0.11369 -0.32711,0.11369 0.0258,1.13792 0.0258,1.13791 0.43718,0.31936 0.43718,0.31988 v 1.10381 1.10329 l 0.3731,0.14314 0.37311,0.14315 0.16123,0.64233 0.16123,0.64234 h 0.27492 0.27492 l -0.1633,0.26459 -0.1633,0.26458 h -0.78393 l -0.78393,-5.2e-4 -0.77566,-1.25677 -0.77567,-1.25677 -0.40927,-0.4191 -0.40928,-0.41909 v -2.19573 -2.19573 l -0.55294,-0.89401 -0.55242,-0.89452 -0.45372,-0.24288 -0.45372,-0.24287 -0.35863,0.22169 -0.35864,0.22169 -0.42064,-0.15451 -0.42117,-0.154 -0.58239,-0.61495 -0.58291,-0.61495 0.18603,-0.004 0.18552,-0.004 -0.293,-0.1943 -0.29352,-0.1943 -0.83096,-1.80454 -0.83148,-1.80454 v -0.22376 -0.22428 l -0.262,-0.0884 -0.26199,-0.0879 0.80511,-1.19062 0.80564,-1.19063 0.64699,-1.247475 0.64699,-1.246945 0.51211,-0.2744 z m -60.58234,4.20182 0.74569,0.10955 0.74569,0.10904 0.32091,0.77566 0.32143,0.77515 0.13125,-0.13178 0.13178,-0.13126 1.14618,0.6718 1.1467,0.67179 0.59376,-0.0858 0.59377,-0.0858 0.14314,-0.61082 0.14314,-0.61082 0.19844,0.0155 0.19844,0.0155 h 0.26458 0.26459 l -0.0662,-0.29766 -0.0661,-0.29765 0.28474,-0.10594 0.28474,-0.10594 0.77359,0.71676 0.7736,0.71675 0.13229,-0.047 0.13229,-0.0475 0.79375,0.25528 0.79375,0.25528 1.05679,0.10232 1.0573,0.10232 0.26561,-0.2961 0.26614,-0.29559 -0.0507,0.0977 -0.0501,0.0977 0.64544,0.6966 0.64595,0.69608 v 1.65675 1.65623 l 0.29921,-0.0661 0.29921,-0.0661 0.66714,1.32292 0.66714,1.32291 0.2589,0.1695 0.2589,0.16898 -1.1591,0.19896 -1.15911,0.19895 -2.36781,-0.016 -2.36833,-0.0155 -0.9648,0.49248 -0.96532,0.49195 -0.44338,0.67697 -0.44338,0.67644 h -0.25735 -0.25787 l -0.99322,-0.87902 -0.9927,-0.87953 -1.23249,-0.67593 -1.233,-0.67644 -0.69556,0.13332 -0.69608,0.13281 -1.07074,-1.15703 -1.07073,-1.15755 -0.36329,-0.8661 -0.36328,-0.86662 -0.23616,-1.29914 -0.23617,-1.29966 0.70642,-1.20923 0.70642,-1.20975 0.4718,-0.3452 z m 17.41134,10.32598 0.6599,0.68885 0.6594,0.68833 v 0.71313 0.71314 h -0.26459 -0.26458 v 0.33796 0.33848 l 0.53227,0.45527 0.53226,0.45579 h 0.26149 0.26148 v 0.41238 0.41289 l 0.26458,-0.16381 0.26459,-0.1633 -0.004,0.61081 -0.004,0.61082 -0.25631,-0.39688 -0.25683,-0.39687 -0.004,0.20774 -0.004,0.20774 0.42736,0.65215 0.42736,0.65216 h 0.2496 0.2496 l 1.05471,0.84749 1.05472,0.8475 -0.0755,0.57309 -0.0749,0.57309 0.37311,0.69712 0.3731,0.69711 0.81442,-0.0873 0.81494,-0.0879 0.39687,-0.15451 0.39688,-0.15503 0.90847,-0.29094 0.90847,-0.29094 0.19585,0.31678 0.19586,0.31677 0.42323,-0.3514 0.42323,-0.3514 0.12816,0.12764 0.12764,0.12816 -0.16744,0.83561 -0.16691,0.83612 h -0.2496 -0.24908 l 0.1478,0.59532 0.14727,0.59531 -0.15192,-0.33073 -0.15193,-0.33073 h -0.19844 -0.19844 l -0.0248,0.33073 -0.0248,0.33073 -0.0615,0.98185 -0.062,0.98134 -0.21911,-0.1354 -0.21859,-0.13539 0.13849,0.36122 0.13849,0.36122 -0.53847,0.48731 -0.53846,0.48731 v 0.29559 0.29507 l -1.21698,1.31723 -1.21647,1.31723 -0.25838,-0.0729 -0.25787,-0.0724 0.15917,0.25787 0.15916,0.25786 -0.56379,0.30179 -0.56379,0.30179 -1.11828,1.16686 -1.11776,1.16633 h 0.12764 0.12713 l -0.61599,0.53434 -0.61598,0.53433 0.0336,0.85473 0.0341,0.85473 0.0351,0.52917 0.0357,0.52916 -0.0729,0.66146 -0.0734,0.66146 -0.41238,0.52917 -0.41289,0.52916 -0.86713,0.0398 -0.86713,0.0398 -0.35192,0.29249 -0.35243,0.29197 -0.17105,1.64073 -0.17157,1.64073 -0.22117,0.22117 -0.2217,0.22169 -0.33951,-0.40876 -0.339,-0.40876 0.1602,-0.80253 0.16071,-0.80202 -0.28473,-1.32705 -0.28422,-1.32705 -0.50488,-0.31471 -0.50436,-0.31523 v -0.36121 -0.36122 l -0.66146,-0.786 -0.66146,-0.786 v -1.07539 -1.0759 l 1.09037,-1.74821 1.08986,-1.74873 1.05988,-1.27693 1.05937,-1.27744 -0.2744,-0.60255 -0.27441,-0.60254 -1.01544,-0.16795 -1.01544,-0.16743 -1.09192,-0.003 -1.09244,-0.003 -0.95808,-0.40049 -0.9586,-0.40049 v -0.70693 -0.70694 l -0.53123,-0.56585 -0.53176,-0.56586 -0.92345,-1.53376 -0.92398,-1.53375 v -1.14309 -1.14256 l 0.26459,-0.16382 0.26458,-0.1633 v -1.55494 -1.55443 l -0.25063,-0.66042 -0.25115,-0.65991 0.54054,-0.6873 0.54053,-0.68729 1.0728,-0.54777 1.07281,-0.54726 1.34979,0.15555 1.34927,0.15606 2.05259,-0.20929 z m -63.287604,3.36672 1.27382,1.7818 1.27331,1.78232 0.2775,0.33073 0.27751,0.33073 h 1.02784 1.02733 l 0.74776,0.62219 0.74827,0.6227 2.01952,0.14831 2.01951,0.14883 0.84078,0.4346 0.84025,0.43459 1.00873,0.91158 1.00924,0.91105 -0.076,1.25677 -0.076,1.25626 -0.0227,0.20205 -0.0227,0.20206 -1.74563,1.66966 -1.74511,1.67018 -0.20206,1.83193 -0.20257,1.83245 -1.36219,2.71198 -1.36219,2.71198 h -1.01028 -1.01079 l -1.2423,0.82269 -1.24178,0.82269 -0.28112,0.52503 -0.28061,0.52451 0.16227,0.64751 0.16278,0.64751 -0.54312,1.11362 -0.54312,1.11415 -0.90279,1.71979 -0.90279,1.71979 -0.017,0.33073 -0.0171,0.33073 h -0.21187 l -0.21136,5.2e-4 -0.31781,-0.3173 -0.31729,-0.31781 v -0.59893 -0.59944 l -0.5519,-0.29508 -0.55139,-0.29507 -0.37827,-0.90485 -0.37776,-0.90486 h -0.42064 -0.42065 l 0.81701,-0.93069 0.81752,-0.93121 0.16898,-0.67283 0.16898,-0.67282 -0.71417,-1.67949 -0.71365,-1.67948 -0.77411,-0.32091 -0.77412,-0.3204 v -1.18855 -1.18856 l -0.59376,-1.09451 -0.59376,-1.09451 -0.99374,-1.16168 -0.99374,-1.16169 v -0.22737 -0.22738 h -0.66662 -0.66714 l -1.1188,-0.69247 -1.11931,-0.69298 -0.79375,-0.7431 -0.79375,-0.74311 -1.55856,0.66146 -1.55856,0.66146 -0.62425,-0.15658 -0.62426,-0.15658 v -0.2682 -0.26769 l 0.39688,-0.15244 0.39687,-0.15193 v -0.50953 -0.50901 l -0.3762,-0.14418 -0.3762,-0.1447 -0.32143,0.17209 h 0.2651 0.30954 v 0.40514 0.40514 l -0.39687,0.15245 -0.39688,0.15244 v 0.49558 0.4961 l 0.71934,0.18035 0.71882,0.18035 1.65416,-0.59325 1.65416,-0.59324 0.86816,0.83044 0.86765,0.82992 0.98185,0.51366 0.98186,0.51367 0.51573,0.0791 0.51573,0.0785 0.971,1.16169 0.97048,1.1622 0.64079,1.264 0.64027,1.26401 v 1.07952 1.07952 l 0.78858,0.45062 0.7891,0.45062 0.53382,1.23972 0.53433,1.23971 v 0.37879 0.37879 l -0.99528,0.65888 -0.99581,0.65887 -0.59169,0.1881 -0.59222,0.1881 v -0.16743 -0.16743 l 0.27596,-0.51521 0.27595,-0.51573 -0.17312,-0.92243 -0.17311,-0.92191 -0.69815,-0.001 -0.69815,-0.001 -0.86868,-0.52969 -0.86868,-0.52968 -0.15193,-0.39532 -0.15141,-0.39585 -0.83148,-0.002 -0.83199,-0.002 -0.75757,-0.39533 -0.7581,-0.39532 h -0.34881 -0.34882 l -0.16795,0.52916 -0.16795,0.52917 h -0.33951 -0.34003 l -2.75125,-2.60553 -2.75126,-2.60604 -0.82992,-0.4284 -0.82993,-0.42788 -1.33273,-1.26555 -1.332735,-1.26556 -0.769462,-1.71979 -0.769979,-1.71979 -1.168921,-1.02113 -1.168404,-1.02112 0.07596,-2.28617 0.07545,-2.28616 0.919324,-1.38907 0.919323,-1.38906 h 0.215491 0.216008 l 0.613916,0.65371 0.613916,0.6537 1.482596,0.87282 1.482597,0.87281 1.12448,0.49816 1.12448,0.49817 v 0.2036 0.20361 l -1.0697,0.91622 -1.07022,0.91571 -0.15503,0.95653 -0.15555,0.95704 h 0.40411 0.40411 l 0.83664,0.95292 0.83716,0.95291 0.46819,-0.42375 0.40308,-0.36483 -0.14883,0.0796 -0.58033,0.31058 -0.74827,-0.81908 -0.7488,-0.81958 h -0.27905 -0.27957 v -0.57103 -0.57154 l 1.25109,-1.14825 1.25057,-1.14877 0.66766,-0.004 0.66714,-0.004 0.39688,-0.25115 0.39687,-0.25114 v -1.6335 -1.634 l 0.44752,-0.28267 0.44752,-0.28319 0.47852,0.41186 0.47853,0.41186 0.45526,0.16123 0.45579,0.16123 0.80099,-0.27905 0.8015,-0.27957 v -1.0325 -1.03249 l 0.19843,0.004 0.19844,0.004 0.37672,0.23874 0.37724,0.23823 0.83716,-0.6382 0.83664,-0.63821 0.17518,0.17519 0.17519,0.17518 v 0.57619 0.57619 l 0.55759,0.50437 0.55758,0.50384 2.0221,-0.009 2.0221,-0.009 1.11776,-0.58859 1.11828,-0.5886 0.58239,-0.78806 z m -17.94619,11.56002 0.11007,-0.0589 h -0.045 z m 137.493924,-9.43302 h 5.1e-4 c 0.28112,10e-4 0.41742,0.0308 0.79996,0.17519 0.23779,0.0897 0.42585,0.17972 0.43718,0.20877 7e-5,2.3e-4 4.7e-4,0.001 5.2e-4,0.002 v 5.2e-4 5.1e-4 5.2e-4 l -5.2e-4,5.2e-4 c -8e-5,1.8e-4 -4.1e-4,0.001 -5.2e-4,0.002 -0.0514,0.0832 0.0891,0.30139 0.3266,0.50642 0.34578,0.2985 0.44278,0.5055 0.41548,0.88677 -0.0178,0.24798 -0.0625,0.38055 -0.25425,0.7581 -0.31397,0.61797 -0.36037,0.89738 -0.28267,1.69292 0.0956,0.9777 0.11046,1.53553 0.0543,2.07739 -0.0987,0.95329 -0.28823,1.69843 -0.51728,2.03347 -0.0927,0.13601 -0.12301,0.14991 -0.29249,0.13901 -0.17911,-0.0115 -0.18861,-0.006 -0.1881,0.11317 3e-4,0.0688 0.0305,0.23683 0.0672,0.37362 0.0881,0.32807 0.0864,0.34921 -0.0408,0.46715 -0.15615,0.14472 -0.24338,0.49701 -0.31988,1.29656 -0.0745,0.77829 -0.13869,1.04046 -0.34106,1.39113 -0.23959,0.41515 -0.66794,0.65013 -1.34514,0.73743 -0.38108,0.0494 -1.08559,0.0442 -1.40973,-0.009 -0.35214,-0.0584 -0.60002,-0.22154 -0.83354,-0.5488 -0.35737,-0.50083 -1.07,-1.67229 -1.27176,-2.09031 -0.2444,-0.50639 -0.31304,-0.71325 -0.44907,-1.35547 -0.11699,-0.55238 -0.19717,-0.74904 -0.34881,-0.85525 -0.0928,-0.065 -0.0963,-0.0914 -0.0677,-0.52761 0.038,-0.57967 0.14336,-1.09918 0.26975,-1.32861 0.056,-0.1017 0.20532,-0.25163 0.34727,-0.34933 0.37908,-0.2608 0.78665,-0.64561 1.36322,-1.28674 1.02017,-1.13439 1.93298,-2.33678 2.47634,-3.26182 0.65681,-1.11821 0.80582,-1.25093 1.40508,-1.24902 z m 6.55774,4.66845 c 0.0873,-0.004 0.17293,0.0389 0.28112,0.11834 0.1837,0.13484 0.30267,0.28292 0.39377,0.48886 0.0537,0.1205 0.0632,0.19448 0.0517,0.39222 -0.0245,0.42259 -0.23921,0.71169 -0.79944,1.07591 -0.54697,0.35559 -0.70937,0.58738 -0.76067,1.08417 -0.0488,0.47295 -0.25575,0.81758 -0.71159,1.18546 -0.52438,0.4232 -0.55136,0.56376 -0.29404,1.5446 0.19324,0.73656 0.44803,1.34152 0.71365,1.69447 0.1521,0.2021 0.2402,0.44114 0.2372,0.64648 -0.006,0.5021 -0.58736,0.72467 -1.17409,0.4501 -0.14464,-0.0677 -0.29703,-0.18137 -0.49661,-0.37052 -0.40733,-0.38605 -0.74719,-0.54136 -1.02268,-0.46716 -0.26743,0.072 -0.38474,0.24773 -0.47904,0.71676 -0.0836,0.41571 -0.17837,0.61158 -0.35346,0.73225 -0.10898,0.0751 -0.18134,0.0682 -0.27544,-0.0258 -0.10883,-0.10883 -0.15203,-0.22296 -0.25063,-0.66404 -0.11425,-0.51078 -0.20106,-1.14542 -0.24546,-1.79782 -0.0474,-0.69505 -0.0171,-0.94855 0.15761,-1.32705 0.18021,-0.39042 0.54377,-1.39312 1.03405,-2.85306 l 0.42633,-1.27072 0.16019,-5.2e-4 c 0.32381,-7.9e-4 1.47648,-0.10036 1.66398,-0.14366 0.49557,-0.11454 0.77944,-0.29659 1.17926,-0.75758 0.26816,-0.30919 0.41875,-0.44465 0.56431,-0.45165 z m -72.70358,0.0847 0.70694,1.39578 0.70642,1.39578 0.53071,0.47956 0.5302,0.48007 v 0.72916 0.72915 l 1.14205,0.55294 1.14153,0.55294 h 1.88774 1.88774 l 0.25425,0.45423 0.25425,0.45424 -0.99374,1.19941 -0.99425,1.19889 -0.48008,0.79375 -0.48007,0.79375 -0.65112,0.98702 -0.65164,0.98651 0.11317,1.56166 0.11317,1.56166 -0.47801,0.29817 -0.47749,0.29817 v 0.75913 0.75913 l 0.36949,0.30696 0.36949,0.30644 -0.13591,0.51935 -0.1354,0.51986 -0.30024,-0.009 -0.2992,-0.007 -0.65474,-0.54467 -0.65423,-0.54467 -1.00614,0.16072 -1.00562,0.16071 -0.15348,-0.40101 -0.15399,-0.40101 h -0.50127 -0.50074 v -1.03921 -1.03922 l -0.72657,-0.57205 -0.72709,-0.57154 -0.99684,0.15968 -0.99684,0.15916 -0.30334,-0.66508 -0.30282,-0.66507 -0.42065,-0.002 -0.42064,-0.002 -0.75758,-0.39532 -0.75809,-0.39533 h -0.72554 -0.72554 l -0.96376,-1.48518 -0.96428,-1.48518 v -0.73535 -0.73536 l 0.41857,-0.16071 0.41858,-0.16072 0.57361,-0.002 0.57361,-0.002 0.75809,-0.39532 0.75758,-0.39481 h 0.71314 0.71313 l 0.46199,-0.33797 0.46198,-0.33796 0.2434,-1.0511 0.24391,-1.0511 0.006,-0.95343 0.006,-0.95291 1.63711,-1.29605 1.63711,-1.29552 0.43305,-0.31368 z m 43.10073,4.51859 c 0.52385,-0.0325 1.66853,0.4717 2.83601,1.25832 0.73087,0.49243 1.16838,0.88835 2.17609,1.9699 1.55946,1.67375 2.42104,2.72057 2.48564,3.01998 0.0531,0.24624 0.23295,0.44704 0.57257,0.63872 0.25892,0.14612 0.41742,0.31673 0.43822,0.4718 0.0259,0.19332 0.38309,0.94126 0.96686,2.02468 0.82408,1.52942 0.98612,1.93793 0.99012,2.49391 0.002,0.31432 -0.004,0.34953 -0.10076,0.55345 -0.16752,0.35369 -0.58864,0.75006 -1.3038,1.22732 -0.34235,0.22846 -0.47109,0.29766 -0.55449,0.29766 -0.0341,0 -0.14655,-0.0623 -0.2496,-0.1385 -0.31401,-0.23213 -0.89014,-0.87176 -1.38131,-1.53375 -0.0757,-0.10207 -0.32552,-0.46164 -0.555,-0.79892 -0.62522,-0.91894 -1.19771,-1.66713 -1.81591,-2.37298 -0.71883,-0.82072 -1.24216,-1.59739 -1.82676,-2.70992 -0.51915,-0.98799 -1.17878,-2.0558 -1.73375,-2.80603 -0.76379,-1.03253 -1.2111,-1.84724 -1.38338,-2.52181 -0.12118,-0.47452 -0.0964,-0.72081 0.092,-0.92087 0.0625,-0.0664 0.14938,-0.11471 0.25063,-0.13901 0.0292,-0.007 0.0617,-0.0119 0.0966,-0.014 z m 35.21956,4.85241 0.59479,0.55863 0.5948,0.55862 h 0.57826 0.57826 v 0.73484 0.73484 l 0.41186,0.58807 0.41186,0.58808 h 0.38189 0.38189 v -1.18132 -1.18132 l 0.5116,-0.27389 0.51211,-0.27388 h 0.66611 0.66662 l 0.74001,0.31316 0.74001,0.31315 1.22783,1.16944 1.22731,1.16944 0.88936,0.18087 0.88883,0.18035 0.0775,0.78393 0.077,0.78445 0.98134,0.85163 0.98082,0.85111 -0.33073,0.53433 -0.33073,0.53382 v 0.40049 0.40049 h 0.26458 0.26459 v 0.56534 0.56483 l 0.66145,0.61288 0.66146,0.61288 v 0.50075 0.50126 l -0.46302,0.39532 -0.46302,0.39584 -0.66146,-0.35088 -0.66146,-0.35037 -0.46302,-0.004 -0.46302,-0.004 v -0.48783 -0.48834 l -0.48369,-0.4377 -0.48421,-0.43822 H 212.07563 211.64 l -0.41031,0.62632 -0.41031,0.6258 -1.23145,-0.22996 -1.23093,-0.22996 -0.64079,-0.42013 -0.64079,-0.41961 -0.50178,0.13126 -0.50177,0.13126 -0.14832,-0.23978 -0.14779,-0.23978 h -0.48473 -0.4842 l 0.0372,-1.80299 0.0367,-1.80299 -0.4439,-0.44597 -0.44441,-0.44597 h -0.93431 -0.93483 l -0.5364,-0.57567 -0.5364,-0.57568 -0.15348,-0.48266 -0.15296,-0.48265 h -0.2465 -0.24701 v -0.44184 -0.44235 l -0.43305,-0.47852 -0.43253,-0.47801 0.43098,-0.16588 0.43149,-0.16536 -0.14469,-0.23462 -0.14521,-0.23461 0.69298,-0.69349 z m -85.64129,4.3186 0.59067,0.41342 0.59117,0.41392 h 0.46406 0.46405 l 0.45527,0.72761 0.45527,0.7276 0.0605,0.0904 0.06,0.0904 0.94051,-0.34003 0.94051,-0.34003 0.66714,0.62632 0.66663,0.62631 0.002,0.9462 0.002,0.9462 0.81339,0.46302 0.81339,0.46302 h 1.20613 1.20612 l 0.29404,0.37 0.29352,0.37052 0.58653,0.17363 0.58653,0.17415 0.17415,-0.69298 0.17363,-0.69298 -0.48834,-0.90692 -0.48886,-0.90744 0.46095,-0.46095 0.46096,-0.46096 0.4563,0.28836 0.45682,0.28784 0.001,0.42271 0.001,0.42271 0.50746,0.37207 0.50695,0.37156 0.32814,1.29191 0.32763,1.29139 -0.25425,0.47542 -0.25476,0.47594 0.16484,0.51935 0.16485,0.51935 0.55656,0.29766 0.55655,0.29817 0.35192,-0.48111 0.3514,-0.48111 v -1.39526 -1.39526 l 0.59531,-0.32246 0.59531,-0.32195 0.69867,0.0501 0.69866,0.0506 0.15297,-0.39894 0.15296,-0.39894 h 0.36328 0.36329 l 0.30644,1.02267 0.30644,1.0232 v 1.57251 1.57303 l -0.84077,0.8599 -0.84078,0.85989 -0.68058,0.13746 -0.68058,0.13746 -1.4552,1.30225 -1.45521,1.30276 0.48214,0.28784 0.48214,0.28784 -0.18138,1.10019 -0.18139,1.10071 -0.25735,0.31936 -0.25735,0.31884 0.1633,0.26458 0.16382,0.26459 -0.63666,0.41703 -0.63665,0.41754 -0.1478,0.90899 -0.14727,0.90899 -0.55759,0.59841 -0.55759,0.59841 -0.14625,0.58291 -0.14624,0.58343 -0.83561,0.31988 -0.83561,0.31987 -0.21807,-0.0444 -0.21808,-0.0444 0.12868,0.20774 0.12816,0.20774 -0.35554,0.48679 -0.35605,0.48679 -0.32298,-0.19998 -0.32297,-0.19947 0.1757,0.28422 0.1757,0.28422 -0.65474,0.51521 -0.65474,0.5147 -1.33532,0.17725 -1.33532,0.17725 -0.32763,0.10283 -0.32815,0.10232 -0.88366,-0.31987 -0.88367,-0.31988 -0.27027,-0.48266 -0.26975,-0.48266 0.29146,-0.56637 0.29197,-0.56637 -0.0894,-0.75293 -0.0889,-0.75241 -0.26613,-0.17363 -0.26613,-0.17312 -0.31626,-0.60099 -0.31626,-0.60048 0.185,-0.30024 0.18552,-0.29973 -0.29404,0.1819 -0.29404,0.1819 -0.40721,-0.78754 -0.40721,-0.78704 0.008,-0.8754 0.008,-0.87488 0.0403,-1.73684 0.0398,-1.73685 -0.58756,-0.58808 -0.58808,-0.58756 0.18293,-0.2961 0.18294,-0.29559 -0.27647,0.17105 -0.27647,0.17053 -0.42581,-0.64957 -0.42582,-0.65009 v -1.08314 -1.08314 l 0.26148,0.16123 0.26149,0.16175 -0.15762,-0.41031 -0.15761,-0.41083 h 0.29301 0.293 v -0.74776 -0.74724 l 0.66146,-0.62167 0.66146,-0.62115 v -0.24288 -0.24288 l -0.5488,-0.69814 -0.54933,-0.69815 0.53331,-0.4315 0.5333,-0.43202 -0.37156,-0.53071 -0.37207,-0.53072 0.18914,-0.18914 0.18913,-0.18913 -0.3576,0.0879 -0.3576,0.0884 -0.33951,-1.11622 -0.34003,-1.11621 0.49609,-0.15761 z m -63.277774,0.71417 1.68827,1.50585 1.68878,1.50637 0.6351,-0.73845 0.63511,-0.73846 0.64389,0.42168 0.64337,0.42168 h 0.85008 0.84956 l 0.68109,0.81184 0.68058,0.81132 1.15807,0.15399 1.15807,0.15348 -0.16175,1.54823 -0.16175,1.54822 h 0.34779 0.34778 l 1.28881,-0.65215 1.28881,-0.65268 0.0822,0.0827 0.0827,0.0822 -0.79685,1.00356 -0.79737,1.00304 v 0.25269 0.25322 l 0.52917,0.13797 0.52916,0.1385 v 0.37827 0.37775 l 0.66146,0.66146 0.66146,0.66146 v 0.43408 0.43408 l 0.5519,0.58705 0.55139,0.58756 -0.45165,0.68936 -0.45217,0.68988 -0.69505,0.15142 -0.69504,0.15089 -0.3421,0.10645 -0.3421,0.10646 0.27595,0.51573 0.27595,0.51573 v 0.51986 0.51987 l -0.91932,0.91984 -0.91932,0.91932 -1.2299,0.30954 -1.22939,0.30955 0.15555,0.15503 0.15503,0.15503 -0.25838,0.48317 -0.2589,0.48317 -0.89504,0.16795 -0.89555,0.16795 0.14004,1.54616 0.14005,1.54668 -0.83819,1.13998 -0.83871,1.1405 0.85007,0.69349 0.84956,0.69402 -0.5271,0.67024 -0.52709,0.67025 -0.34882,1.45365 -0.34882,1.45366 0.17312,0.68833 0.1726,0.68885 1.0666,0.70538 1.06609,0.7059 -0.39016,0.39016 -0.39016,0.39016 -1.3038,0.12505 -1.30431,0.12558 -0.36948,-0.45424 -0.36897,-0.45423 -1.2206,-1.36168 -1.22008,-1.36167 -0.32918,-0.63046 -0.32918,-0.63045 -0.0636,-1.48621 -0.0641,-1.48622 -0.57413,-0.29145 -0.57412,-0.29094 -0.14573,-0.14573 -0.14521,-0.14521 0.67955,-1.34048 0.67902,-1.34049 v -0.9586 -0.9586 l -0.54311,-0.43976 -0.54312,-0.43977 -0.5085,-2.24844 -0.5085,-2.24844 -0.007,-0.71831 -0.007,-0.7183 0.79375,-0.90434 0.79375,-0.90382 v -1.12034 -1.12035 l -0.4532,-1.2764 -0.45372,-1.27641 0.45217,-0.94826 0.45217,-0.94827 -0.40928,-2.3735 -0.40979,-2.37349 0.0801,-1.32292 z M 177.69841,140.227 c 1.5588,0 1.71305,0.0105 2.14251,0.14935 0.67054,0.21677 1.64639,0.95187 1.90221,1.43298 0.1195,0.22483 0.1322,0.49071 0.0294,0.62942 -0.34691,0.46848 -1.17431,0.5923 -3.86591,0.5793 -0.66827,-0.003 -1.30886,-0.01 -1.42317,-0.015 -1.02874,-0.0454 -1.5318,-0.10895 -1.79782,-0.22738 -0.51212,-0.22797 -0.57709,-0.82571 -0.18087,-1.65984 0.18735,-0.39443 0.49536,-0.64274 0.93948,-0.75655 0.45025,-0.1154 0.74253,-0.13229 2.25412,-0.13229 z m 18.76268,2.38435 0.62219,0.7612 0.6227,0.76119 0.16898,0.92604 0.16898,0.92604 0.37517,1.34359 0.37517,1.34307 0.92036,1.00511 0.92087,1.0051 v 0.58188 0.58239 l 0.59532,0.52607 0.59531,0.52658 0.7276,0.45165 0.72761,0.45217 v 0.66818 0.66869 l 0.40359,0.78083 0.40359,0.78032 h 0.25787 0.25786 v 0.51573 0.51521 l 0.62684,0.67696 0.62735,0.67645 0.16382,0.99064 0.16329,0.99063 0.003,1.68155 0.003,1.68155 -0.73019,1.09658 -0.7307,1.09657 -0.63097,1.32292 -0.63097,1.32292 -0.48369,1.05833 -0.4837,1.05833 -0.0754,0.52917 -0.0754,0.52917 -1.13482,0.0822 -1.13481,0.0822 -0.24546,0.64544 -0.24547,0.64543 h -0.21445 -0.21446 l -0.44597,-0.44545 -0.44545,-0.44596 -0.67024,0.35863 -0.67025,0.35863 -0.61133,-0.57412 -0.61133,-0.57464 h -0.68575 -0.68574 l -0.1788,-1.29966 -0.1788,-1.30018 0.34364,-0.61805 0.34417,-0.61857 0.006,-0.33228 -0.0956,0.17932 -0.48214,0.90485 -0.49196,-0.57412 -0.49144,-0.57465 h -0.33848 -0.33797 v -0.26458 -0.26458 h -0.31006 -0.30954 l -0.48421,0.43821 -0.48369,0.4377 v -0.42891 -0.42892 l -0.44442,-0.93224 -0.44493,-0.93224 -0.51935,-0.16537 -0.51986,-0.16484 -1.61541,-0.0687 -1.6154,-0.0687 -1.05834,0.55604 -1.05833,0.55655 -1.37304,1.26194 -1.37356,1.26245 h -0.93276 -0.93328 l -0.92604,0.92605 -0.92604,0.92604 -1.00097,-0.008 -1.00253,-0.008 -0.46302,-0.26975 -0.46302,-0.26975 v -0.262 -0.262 l 0.56896,-0.76947 0.56844,-0.76894 -0.44235,-0.67541 -0.44235,-0.67541 h -0.22634 -0.22583 l -0.55139,-1.28209 -0.55138,-1.2821 -0.40722,-0.33744 -0.40721,-0.33797 -0.009,-1.3565 -0.009,-1.35703 -0.37776,-0.66146 -0.37827,-0.66145 -0.009,-0.99219 -0.009,-0.99219 h -0.41496 -0.41548 l 0.0842,-0.57309 0.0848,-0.57309 0.80718,-0.28681 0.80719,-0.2868 0.78031,-0.54984 0.78032,-0.54984 1.77612,-0.97875 1.77611,-0.97927 0.4067,-0.58032 0.40669,-0.58084 v -1.13172 -1.13171 h 0.20102 0.20102 l 0.33435,0.53537 0.33383,0.53536 0.52555,-0.28163 0.52555,-0.28112 -0.16382,-0.65371 -0.16433,-0.65371 1.00459,-1.25418 1.00511,-1.25367 0.0754,-0.10284 0.076,-0.10335 0.91571,0.69866 0.9157,0.69815 h 0.27286 0.27285 l 0.27388,-0.5116 0.27389,-0.51159 v -0.81132 -0.81132 h 0.26458 0.26458 V 145.17 l 0.10853,-0.0904 0.3731,-0.30954 0.95601,-0.15555 0.95602,-0.15503 0.14159,-0.22893 0.14159,-0.22892 h 1.03043 1.02991 l 0.67386,0.30696 0.67438,0.30747 v 0.38551 0.3855 l -0.79375,0.90382 -0.79375,0.90434 v 0.23616 0.23668 l 0.4284,0.42891 0.42891,0.4284 0.73743,0.1478 0.7369,0.14727 0.87023,0.89814 0.87023,0.89762 h 0.28629 0.28629 l 0.39119,-0.46302 0.39067,-0.46302 0.0904,-1.85208 0.0904,-1.85209 0.20929,-0.26458 0.20929,-0.26458 0.1912,-1.42266 z m -48.04874,3.144 h 0.35811 0.35864 l 0.15709,0.41082 0.15762,0.41031 -0.25838,-0.15968 -0.25839,-0.15968 0.1571,0.40876 0.15658,0.40928 0.20877,-0.12919 0.20929,-0.12867 0.41961,1.04903 0.41962,1.04903 -0.1695,0.86765 -0.1695,0.86713 -0.38344,0.59324 -0.38344,0.59273 -0.24236,-0.14934 -0.24185,-0.14987 0.0724,0.35037 0.0729,0.35037 -0.2682,-0.0455 -0.2682,-0.045 0.0563,0.971 0.0568,0.97152 -0.27285,0.86248 -0.27233,0.86196 -0.2434,-0.15038 -0.24339,-0.14986 -0.0217,0.21394 -0.0222,0.21394 -0.0667,0.59997 -0.0661,0.60048 -0.48111,0.35191 -0.4811,0.35192 0.17518,0.28319 0.17518,0.28318 -0.40876,0.40876 -0.40876,0.40877 0.0481,0.076 0.0486,0.0754 -0.185,0.58187 -0.18449,0.58188 -0.47542,0.1509 -0.47491,0.15037 -0.30644,1.02216 -0.30593,1.02216 -0.39584,0.32815 -0.39584,0.32814 v -0.29662 -0.29714 h -0.64544 -0.64595 l -0.16382,0.26459 -0.16329,0.26458 h -0.52917 l -0.52917,-5.2e-4 0.1633,-0.26458 0.16381,-0.26458 h -0.25114 -0.25063 l 0.0367,-0.45682 0.0367,-0.45682 -0.30851,-0.006 -0.30903,-0.006 -0.16381,-0.16433 -0.16433,-0.16433 0.31988,-0.7028 0.32039,-0.7028 -0.31006,-0.31006 -0.31057,-0.31057 v -0.52607 -0.52555 l 1.19062,-1.51567 1.19063,-1.51567 v -0.30231 -0.3023 l -0.30593,0.18913 -0.30644,0.18914 0.17208,-1.25367 0.17157,-1.25367 0.53123,-0.67541 0.53124,-0.67541 v -0.35967 -0.35967 l 0.92604,0.11886 0.92604,0.11833 v -0.25218 -0.25269 h 0.28008 0.28061 l -0.19896,0.33072 -0.19843,0.33073 0.44441,-0.3607 0.44494,-0.3607 -0.10594,-0.17156 -0.10594,-0.17105 0.35554,-0.4868 0.35605,-0.48679 0.28422,0.1757 0.2837,0.1757 0.17209,-0.44855 0.17259,-0.44907 -0.33072,-0.52968 -0.33073,-0.52917 0.68523,0.13074 0.68574,0.13126 0.27492,-1.02164 z"
             />
      </g>
   </svg>